solid OpenSCAD_Model
  facet normal -1 0 0
    outer loop
      vertex 0 57 30
      vertex 0 61 0
      vertex 0 57 2
    endloop
  endfacet
  facet normal -1 0 0
    outer loop
      vertex 0 0 0
      vertex 0 0 30
      vertex 0 19 2
    endloop
  endfacet
  facet normal -1 0 0
    outer loop
      vertex 0 0 0
      vertex 0 19 2
      vertex 0 61 0
    endloop
  endfacet
  facet normal -1 0 0
    outer loop
      vertex 0 61 0
      vertex 0 57 30
      vertex 0 61 30
    endloop
  endfacet
  facet normal -1 0 0
    outer loop
      vertex 0 19 2
      vertex 0 0 30
      vertex 0 19 30
    endloop
  endfacet
  facet normal -1 0 0
    outer loop
      vertex 0 57 2
      vertex 0 61 0
      vertex 0 19 2
    endloop
  endfacet
  facet normal 0 -1 0
    outer loop
      vertex 19 0 2
      vertex 0 0 0
      vertex 91 0 0
    endloop
  endfacet
  facet normal 0 -1 0
    outer loop
      vertex 29 0 2
      vertex 19 0 2
      vertex 91 0 0
    endloop
  endfacet
  facet normal 0 -1 0
    outer loop
      vertex 0 0 30
      vertex 0 0 0
      vertex 19 0 2
    endloop
  endfacet
  facet normal 0 -1 0
    outer loop
      vertex 37 0 2
      vertex 37 0 22
      vertex 29 0 17
    endloop
  endfacet
  facet normal 0 -1 0
    outer loop
      vertex 0 0 30
      vertex 19 0 2
      vertex 19 0 17
    endloop
  endfacet
  facet normal 0 -1 0
    outer loop
      vertex 49 0 22
      vertex 49 0 2
      vertex 91 0 0
    endloop
  endfacet
  facet normal 0 -1 0
    outer loop
      vertex 0 0 30
      vertex 19 0 17
      vertex 29 0 17
    endloop
  endfacet
  facet normal 0 -1 0
    outer loop
      vertex 37 0 2
      vertex 29 0 2
      vertex 91 0 0
    endloop
  endfacet
  facet normal 0 -1 0
    outer loop
      vertex 49 0 2
      vertex 37 0 2
      vertex 91 0 0
    endloop
  endfacet
  facet normal 0 -1 0
    outer loop
      vertex 91 0 30
      vertex 0 0 30
      vertex 37 0 22
    endloop
  endfacet
  facet normal 0 -1 0
    outer loop
      vertex 91 0 30
      vertex 49 0 22
      vertex 91 0 0
    endloop
  endfacet
  facet normal 0 -1 0
    outer loop
      vertex 91 0 30
      vertex 37 0 22
      vertex 49 0 22
    endloop
  endfacet
  facet normal 0 -1 0
    outer loop
      vertex 29 0 17
      vertex 37 0 22
      vertex 0 0 30
    endloop
  endfacet
  facet normal 0 -1 0
    outer loop
      vertex 29 0 17
      vertex 29 0 2
      vertex 37 0 2
    endloop
  endfacet
  facet normal 0 0 -1
    outer loop
      vertex 0 0 0
      vertex 0 61 0
      vertex 91 0 0
    endloop
  endfacet
  facet normal 0 0 -1
    outer loop
      vertex 91 0 0
      vertex 0 61 0
      vertex 91 61 0
    endloop
  endfacet
  facet normal 0 1 0
    outer loop
      vertex 54 61 14
      vertex 91 61 0
      vertex 54 61 2
    endloop
  endfacet
  facet normal 0 1 0
    outer loop
      vertex 54 61 14
      vertex 0 61 30
      vertex 91 61 30
    endloop
  endfacet
  facet normal 0 1 0
    outer loop
      vertex 0 61 0
      vertex 0 61 30
      vertex 36 61 14
    endloop
  endfacet
  facet normal 0 1 0
    outer loop
      vertex 0 61 0
      vertex 36 61 14
      vertex 36 61 2
    endloop
  endfacet
  facet normal 0 1 0
    outer loop
      vertex 0 61 0
      vertex 36 61 2
      vertex 91 61 0
    endloop
  endfacet
  facet normal 0 1 0
    outer loop
      vertex 36 61 2
      vertex 54 61 2
      vertex 91 61 0
    endloop
  endfacet
  facet normal 0 1 0
    outer loop
      vertex 91 61 0
      vertex 54 61 14
      vertex 91 61 30
    endloop
  endfacet
  facet normal 0 1 0
    outer loop
      vertex 36 61 14
      vertex 0 61 30
      vertex 54 61 14
    endloop
  endfacet
  facet normal 0 0 1
    outer loop
      vertex 3 3 30
      vertex 0 0 30
      vertex 91 0 30
    endloop
  endfacet
  facet normal 0 0 1
    outer loop
      vertex 88 3 30
      vertex 3 3 30
      vertex 91 0 30
    endloop
  endfacet
  facet normal 0 0 1
    outer loop
      vertex 3 3 30
      vertex 3 19 30
      vertex 0 19 30
    endloop
  endfacet
  facet normal 0 0 1
    outer loop
      vertex 0 61 30
      vertex 3 58 30
      vertex 91 61 30
    endloop
  endfacet
  facet normal 0 0 1
    outer loop
      vertex 0 61 30
      vertex 0 57 30
      vertex 3 58 30
    endloop
  endfacet
  facet normal 0 0 1
    outer loop
      vertex 91 61 30
      vertex 88 58 30
      vertex 91 0 30
    endloop
  endfacet
  facet normal 0 0 1
    outer loop
      vertex 88 58 30
      vertex 88 3 30
      vertex 91 0 30
    endloop
  endfacet
  facet normal 0 0 1
    outer loop
      vertex 0 19 30
      vertex 0 0 30
      vertex 3 3 30
    endloop
  endfacet
  facet normal 0 0 1
    outer loop
      vertex 3 57 30
      vertex 3 58 30
      vertex 0 57 30
    endloop
  endfacet
  facet normal 0 0 1
    outer loop
      vertex 3 58 30
      vertex 88 58 30
      vertex 91 61 30
    endloop
  endfacet
  facet normal 0 -1 0
    outer loop
      vertex 3 57 2
      vertex 3 57 30
      vertex 0 57 30
    endloop
  endfacet
  facet normal 0 -1 0
    outer loop
      vertex 0 57 2
      vertex 3 57 2
      vertex 0 57 30
    endloop
  endfacet
  facet normal 0 0 1
    outer loop
      vertex 29 3 2
      vertex 37 3 2
      vertex 3 19 2
    endloop
  endfacet
  facet normal 0 0 1
    outer loop
      vertex 3 19 2
      vertex 3 3 2
      vertex 19 3 2
    endloop
  endfacet
  facet normal 0 0 1
    outer loop
      vertex 29 0 2
      vertex 3 19 2
      vertex 19 3 2
    endloop
  endfacet
  facet normal 0 0 1
    outer loop
      vertex 19 0 2
      vertex 29 0 2
      vertex 19 3 2
    endloop
  endfacet
  facet normal 0 0 1
    outer loop
      vertex 29 0 2
      vertex 29 3 2
      vertex 3 19 2
    endloop
  endfacet
  facet normal 0 0 1
    outer loop
      vertex 37 3 2
      vertex 49 0 2
      vertex 3 19 2
    endloop
  endfacet
  facet normal 0 0 1
    outer loop
      vertex 49 3 2
      vertex 88 3 2
      vertex 3 19 2
    endloop
  endfacet
  facet normal 0 0 1
    outer loop
      vertex 37 0 2
      vertex 49 0 2
      vertex 37 3 2
    endloop
  endfacet
  facet normal 0 0 1
    outer loop
      vertex 49 0 2
      vertex 49 3 2
      vertex 3 19 2
    endloop
  endfacet
  facet normal 0 0 1
    outer loop
      vertex 88 15 2
      vertex 91 15 2
      vertex 3 19 2
    endloop
  endfacet
  facet normal 0 0 1
    outer loop
      vertex 88 3 2
      vertex 88 15 2
      vertex 3 19 2
    endloop
  endfacet
  facet normal 0 0 1
    outer loop
      vertex 88 44 2
      vertex 88 45.5 2
      vertex 3 19 2
    endloop
  endfacet
  facet normal 0 0 1
    outer loop
      vertex 91 15 2
      vertex 91 44 2
      vertex 3 19 2
    endloop
  endfacet
  facet normal 0 0 1
    outer loop
      vertex 91 44 2
      vertex 88 44 2
      vertex 3 19 2
    endloop
  endfacet
  facet normal 0 0 1
    outer loop
      vertex 88 45.5 2
      vertex 91 55.5 2
      vertex 3 19 2
    endloop
  endfacet
  facet normal 0 0 1
    outer loop
      vertex 88 55.5 2
      vertex 88 58 2
      vertex 3 19 2
    endloop
  endfacet
  facet normal 0 0 1
    outer loop
      vertex 91 45.5 2
      vertex 91 55.5 2
      vertex 88 45.5 2
    endloop
  endfacet
  facet normal 0 0 1
    outer loop
      vertex 91 55.5 2
      vertex 88 55.5 2
      vertex 3 19 2
    endloop
  endfacet
  facet normal 0 0 1
    outer loop
      vertex 54 58 2
      vertex 54 61 2
      vertex 3 19 2
    endloop
  endfacet
  facet normal 0 0 1
    outer loop
      vertex 88 58 2
      vertex 54 58 2
      vertex 3 19 2
    endloop
  endfacet
  facet normal 0 0 1
    outer loop
      vertex 3 57 2
      vertex 0 57 2
      vertex 3 19 2
    endloop
  endfacet
  facet normal 0 0 1
    outer loop
      vertex 54 61 2
      vertex 36 58 2
      vertex 3 19 2
    endloop
  endfacet
  facet normal 0 0 1
    outer loop
      vertex 54 61 2
      vertex 36 61 2
      vertex 36 58 2
    endloop
  endfacet
  facet normal 0 0 1
    outer loop
      vertex 36 58 2
      vertex 3 57 2
      vertex 3 19 2
    endloop
  endfacet
  facet normal 0 0 1
    outer loop
      vertex 0 19 2
      vertex 3 19 2
      vertex 0 57 2
    endloop
  endfacet
  facet normal 0 0 1
    outer loop
      vertex 36 58 2
      vertex 3 58 2
      vertex 3 57 2
    endloop
  endfacet
  facet normal 0 1 0
    outer loop
      vertex 3 19 30
      vertex 3 19 2
      vertex 0 19 30
    endloop
  endfacet
  facet normal 0 1 0
    outer loop
      vertex 0 19 30
      vertex 3 19 2
      vertex 0 19 2
    endloop
  endfacet
  facet normal 1 0 0
    outer loop
      vertex 91 15 2
      vertex 91 0 0
      vertex 91 61 0
    endloop
  endfacet
  facet normal 1 0 0
    outer loop
      vertex 91 44 2
      vertex 91 15 2
      vertex 91 61 0
    endloop
  endfacet
  facet normal 1 0 0
    outer loop
      vertex 91 0 30
      vertex 91 0 0
      vertex 91 15 2
    endloop
  endfacet
  facet normal 1 0 0
    outer loop
      vertex 91 44 7
      vertex 91 45.5 10
      vertex 91 0 30
    endloop
  endfacet
  facet normal 1 0 0
    outer loop
      vertex 91 0 30
      vertex 91 15 2
      vertex 91 15 7
    endloop
  endfacet
  facet normal 1 0 0
    outer loop
      vertex 91 55.5 10
      vertex 91 55.5 2
      vertex 91 61 0
    endloop
  endfacet
  facet normal 1 0 0
    outer loop
      vertex 91 0 30
      vertex 91 15 7
      vertex 91 44 7
    endloop
  endfacet
  facet normal 1 0 0
    outer loop
      vertex 91 45.5 2
      vertex 91 44 2
      vertex 91 61 0
    endloop
  endfacet
  facet normal 1 0 0
    outer loop
      vertex 91 61 30
      vertex 91 0 30
      vertex 91 45.5 10
    endloop
  endfacet
  facet normal 1 0 0
    outer loop
      vertex 91 61 30
      vertex 91 55.5 10
      vertex 91 61 0
    endloop
  endfacet
  facet normal 1 0 0
    outer loop
      vertex 91 61 30
      vertex 91 45.5 10
      vertex 91 55.5 10
    endloop
  endfacet
  facet normal 1 0 0
    outer loop
      vertex 91 45.5 2
      vertex 91 45.5 10
      vertex 91 44 7
    endloop
  endfacet
  facet normal 1 0 0
    outer loop
      vertex 91 55.5 2
      vertex 91 45.5 2
      vertex 91 61 0
    endloop
  endfacet
  facet normal 1 0 0
    outer loop
      vertex 91 44 7
      vertex 91 44 2
      vertex 91 45.5 2
    endloop
  endfacet
  facet normal 1 0 0
    outer loop
      vertex 19 3 2
      vertex 19 3 17
      vertex 19 0 17
    endloop
  endfacet
  facet normal 1 0 0
    outer loop
      vertex 19 0 2
      vertex 19 3 2
      vertex 19 0 17
    endloop
  endfacet
  facet normal -1 0 0
    outer loop
      vertex 29 3 17
      vertex 29 3 2
      vertex 29 0 17
    endloop
  endfacet
  facet normal -1 0 0
    outer loop
      vertex 29 0 17
      vertex 29 3 2
      vertex 29 0 2
    endloop
  endfacet
  facet normal 0 0 -1
    outer loop
      vertex 29 3 17
      vertex 29 0 17
      vertex 19 3 17
    endloop
  endfacet
  facet normal 0 0 -1
    outer loop
      vertex 19 3 17
      vertex 29 0 17
      vertex 19 0 17
    endloop
  endfacet
  facet normal 1 0 0
    outer loop
      vertex 37 3 2
      vertex 37 3 22
      vertex 37 0 22
    endloop
  endfacet
  facet normal 1 0 0
    outer loop
      vertex 37 0 2
      vertex 37 3 2
      vertex 37 0 22
    endloop
  endfacet
  facet normal -1 0 0
    outer loop
      vertex 49 3 22
      vertex 49 3 2
      vertex 49 0 22
    endloop
  endfacet
  facet normal -1 0 0
    outer loop
      vertex 49 0 22
      vertex 49 3 2
      vertex 49 0 2
    endloop
  endfacet
  facet normal 0 0 -1
    outer loop
      vertex 49 3 22
      vertex 49 0 22
      vertex 37 3 22
    endloop
  endfacet
  facet normal 0 0 -1
    outer loop
      vertex 37 3 22
      vertex 49 0 22
      vertex 37 0 22
    endloop
  endfacet
  facet normal 1 0 0
    outer loop
      vertex 36 61 2
      vertex 36 61 14
      vertex 36 58 14
    endloop
  endfacet
  facet normal 1 0 0
    outer loop
      vertex 36 58 2
      vertex 36 61 2
      vertex 36 58 14
    endloop
  endfacet
  facet normal 0 0 -1
    outer loop
      vertex 54 61 14
      vertex 54 58 14
      vertex 36 61 14
    endloop
  endfacet
  facet normal 0 0 -1
    outer loop
      vertex 36 61 14
      vertex 54 58 14
      vertex 36 58 14
    endloop
  endfacet
  facet normal -1 0 0
    outer loop
      vertex 54 61 14
      vertex 54 61 2
      vertex 54 58 14
    endloop
  endfacet
  facet normal -1 0 0
    outer loop
      vertex 54 58 14
      vertex 54 61 2
      vertex 54 58 2
    endloop
  endfacet
  facet normal 1 0 0
    outer loop
      vertex 3 19 2
      vertex 3 19 30
      vertex 3 3 30
    endloop
  endfacet
  facet normal 1 0 0
    outer loop
      vertex 3 3 2
      vertex 3 19 2
      vertex 3 3 30
    endloop
  endfacet
  facet normal 0 1 0
    outer loop
      vertex 19 3 2
      vertex 3 3 30
      vertex 19 3 17
    endloop
  endfacet
  facet normal 0 1 0
    outer loop
      vertex 88 3 30
      vertex 88 3 2
      vertex 49 3 22
    endloop
  endfacet
  facet normal 0 1 0
    outer loop
      vertex 88 3 30
      vertex 49 3 22
      vertex 3 3 30
    endloop
  endfacet
  facet normal 0 1 0
    outer loop
      vertex 19 3 17
      vertex 3 3 30
      vertex 29 3 17
    endloop
  endfacet
  facet normal 0 1 0
    outer loop
      vertex 49 3 22
      vertex 37 3 22
      vertex 3 3 30
    endloop
  endfacet
  facet normal 0 1 0
    outer loop
      vertex 29 3 17
      vertex 37 3 2
      vertex 29 3 2
    endloop
  endfacet
  facet normal 0 1 0
    outer loop
      vertex 37 3 2
      vertex 29 3 17
      vertex 37 3 22
    endloop
  endfacet
  facet normal 0 1 0
    outer loop
      vertex 3 3 30
      vertex 19 3 2
      vertex 3 3 2
    endloop
  endfacet
  facet normal 0 1 0
    outer loop
      vertex 49 3 22
      vertex 88 3 2
      vertex 49 3 2
    endloop
  endfacet
  facet normal 0 1 0
    outer loop
      vertex 29 3 17
      vertex 3 3 30
      vertex 37 3 22
    endloop
  endfacet
  facet normal -1 0 0
    outer loop
      vertex 88 45.5 2
      vertex 88 44 7
      vertex 88 45.5 10
    endloop
  endfacet
  facet normal -1 0 0
    outer loop
      vertex 88 58 30
      vertex 88 58 2
      vertex 88 55.5 10
    endloop
  endfacet
  facet normal -1 0 0
    outer loop
      vertex 88 58 30
      vertex 88 55.5 10
      vertex 88 3 30
    endloop
  endfacet
  facet normal -1 0 0
    outer loop
      vertex 88 44 7
      vertex 88 3 30
      vertex 88 45.5 10
    endloop
  endfacet
  facet normal -1 0 0
    outer loop
      vertex 88 55.5 10
      vertex 88 45.5 10
      vertex 88 3 30
    endloop
  endfacet
  facet normal -1 0 0
    outer loop
      vertex 88 44 7
      vertex 88 45.5 2
      vertex 88 44 2
    endloop
  endfacet
  facet normal -1 0 0
    outer loop
      vertex 88 15 7
      vertex 88 3 30
      vertex 88 44 7
    endloop
  endfacet
  facet normal -1 0 0
    outer loop
      vertex 88 3 30
      vertex 88 15 7
      vertex 88 15 2
    endloop
  endfacet
  facet normal -1 0 0
    outer loop
      vertex 88 3 30
      vertex 88 15 2
      vertex 88 3 2
    endloop
  endfacet
  facet normal -1 0 0
    outer loop
      vertex 88 55.5 10
      vertex 88 58 2
      vertex 88 55.5 2
    endloop
  endfacet
  facet normal 0 -1 0
    outer loop
      vertex 88 58 30
      vertex 36 58 14
      vertex 54 58 14
    endloop
  endfacet
  facet normal 0 -1 0
    outer loop
      vertex 36 58 2
      vertex 36 58 14
      vertex 3 58 30
    endloop
  endfacet
  facet normal 0 -1 0
    outer loop
      vertex 54 58 2
      vertex 88 58 2
      vertex 54 58 14
    endloop
  endfacet
  facet normal 0 -1 0
    outer loop
      vertex 88 58 2
      vertex 88 58 30
      vertex 54 58 14
    endloop
  endfacet
  facet normal 0 -1 0
    outer loop
      vertex 88 58 30
      vertex 3 58 30
      vertex 36 58 14
    endloop
  endfacet
  facet normal 0 -1 0
    outer loop
      vertex 3 58 30
      vertex 3 58 2
      vertex 36 58 2
    endloop
  endfacet
  facet normal 1 0 0
    outer loop
      vertex 3 58 2
      vertex 3 58 30
      vertex 3 57 30
    endloop
  endfacet
  facet normal 1 0 0
    outer loop
      vertex 3 57 2
      vertex 3 58 2
      vertex 3 57 30
    endloop
  endfacet
  facet normal 0 -1 0
    outer loop
      vertex 91 55.5 2
      vertex 91 55.5 10
      vertex 88 55.5 10
    endloop
  endfacet
  facet normal 0 -1 0
    outer loop
      vertex 88 55.5 2
      vertex 91 55.5 2
      vertex 88 55.5 10
    endloop
  endfacet
  facet normal 0 1 0
    outer loop
      vertex 91 45.5 10
      vertex 91 45.5 2
      vertex 88 45.5 10
    endloop
  endfacet
  facet normal 0 1 0
    outer loop
      vertex 88 45.5 10
      vertex 91 45.5 2
      vertex 88 45.5 2
    endloop
  endfacet
  facet normal 0 -1 0
    outer loop
      vertex 91 44 2
      vertex 91 44 7
      vertex 88 44 7
    endloop
  endfacet
  facet normal 0 -1 0
    outer loop
      vertex 88 44 2
      vertex 91 44 2
      vertex 88 44 7
    endloop
  endfacet
  facet normal 0 1 0
    outer loop
      vertex 91 15 7
      vertex 91 15 2
      vertex 88 15 7
    endloop
  endfacet
  facet normal 0 1 0
    outer loop
      vertex 88 15 7
      vertex 91 15 2
      vertex 88 15 2
    endloop
  endfacet
  facet normal 0 0 -1
    outer loop
      vertex 91 44 7
      vertex 91 15 7
      vertex 88 44 7
    endloop
  endfacet
  facet normal 0 0 -1
    outer loop
      vertex 88 44 7
      vertex 91 15 7
      vertex 88 15 7
    endloop
  endfacet
  facet normal 0 0 -1
    outer loop
      vertex 91 55.5 10
      vertex 91 45.5 10
      vertex 88 55.5 10
    endloop
  endfacet
  facet normal 0 0 -1
    outer loop
      vertex 88 55.5 10
      vertex 91 45.5 10
      vertex 88 45.5 10
    endloop
  endfacet
endsolid OpenSCAD_Model
