solid OpenSCAD_Model
  facet normal -1 0 0
    outer loop
      vertex 0 0 0
      vertex 0 0 2
      vertex 0 82 0
    endloop
  endfacet
  facet normal -1 0 0
    outer loop
      vertex 0 82 0
      vertex 0 0 2
      vertex 0 82 2
    endloop
  endfacet
  facet normal 0 -1 0
    outer loop
      vertex 0 0 2
      vertex 0 0 0
      vertex 115 0 0
    endloop
  endfacet
  facet normal 0 -1 0
    outer loop
      vertex 10 0 2
      vertex 0 0 2
      vertex 115 0 0
    endloop
  endfacet
  facet normal 0 -1 0
    outer loop
      vertex 105 0 2
      vertex 10 0 2
      vertex 115 0 0
    endloop
  endfacet
  facet normal 0 -1 0
    outer loop
      vertex 115 0 2
      vertex 105 0 2
      vertex 115 0 0
    endloop
  endfacet
  facet normal 0 -1 0
    outer loop
      vertex 105 0 15
      vertex 10 0 2
      vertex 105 0 2
    endloop
  endfacet
  facet normal 0 -1 0
    outer loop
      vertex 10 0 15
      vertex 10 0 2
      vertex 105 0 15
    endloop
  endfacet
  facet normal 0 0 -1
    outer loop
      vertex 25 64.5 0
      vertex 0 82 0
      vertex 115 82 0
    endloop
  endfacet
  facet normal 0 0 -1
    outer loop
      vertex 90 64.5 0
      vertex 25 64.5 0
      vertex 115 82 0
    endloop
  endfacet
  facet normal 0 0 -1
    outer loop
      vertex 0 0 0
      vertex 0 82 0
      vertex 25 17.5 0
    endloop
  endfacet
  facet normal 0 0 -1
    outer loop
      vertex 0 0 0
      vertex 25 17.5 0
      vertex 115 0 0
    endloop
  endfacet
  facet normal 0 0 -1
    outer loop
      vertex 90 64.5 0
      vertex 115 0 0
      vertex 90 17.5 0
    endloop
  endfacet
  facet normal 0 0 -1
    outer loop
      vertex 25 17.5 0
      vertex 90 17.5 0
      vertex 115 0 0
    endloop
  endfacet
  facet normal 0 0 -1
    outer loop
      vertex 115 0 0
      vertex 90 64.5 0
      vertex 115 82 0
    endloop
  endfacet
  facet normal 0 0 -1
    outer loop
      vertex 25 17.5 0
      vertex 0 82 0
      vertex 25 64.5 0
    endloop
  endfacet
  facet normal 0 1 0
    outer loop
      vertex 0 82 0
      vertex 0 82 2
      vertex 115 82 0
    endloop
  endfacet
  facet normal 0 1 0
    outer loop
      vertex 115 82 0
      vertex 0 82 2
      vertex 10 82 2
    endloop
  endfacet
  facet normal 0 1 0
    outer loop
      vertex 115 82 0
      vertex 10 82 2
      vertex 10 82 15
    endloop
  endfacet
  facet normal 0 1 0
    outer loop
      vertex 105 82 2
      vertex 10 82 15
      vertex 105 82 15
    endloop
  endfacet
  facet normal 0 1 0
    outer loop
      vertex 115 82 0
      vertex 10 82 15
      vertex 105 82 2
    endloop
  endfacet
  facet normal 0 1 0
    outer loop
      vertex 115 82 2
      vertex 115 82 0
      vertex 105 82 2
    endloop
  endfacet
  facet normal 0 0 1
    outer loop
      vertex 0 82 2
      vertex 0 0 2
      vertex 10 0 2
    endloop
  endfacet
  facet normal 0 0 1
    outer loop
      vertex 10 8 2
      vertex 0 82 2
      vertex 10 2 2
    endloop
  endfacet
  facet normal 0 0 1
    outer loop
      vertex 10 2 2
      vertex 0 82 2
      vertex 10 0 2
    endloop
  endfacet
  facet normal 0 0 1
    outer loop
      vertex 105 72 2
      vertex 25 64.5 2
      vertex 90 64.5 2
    endloop
  endfacet
  facet normal 0 0 1
    outer loop
      vertex 115 0 2
      vertex 105 2 2
      vertex 105 0 2
    endloop
  endfacet
  facet normal 0 0 1
    outer loop
      vertex 105 72 2
      vertex 10 72 2
      vertex 25 64.5 2
    endloop
  endfacet
  facet normal 0 0 1
    outer loop
      vertex 115 82 2
      vertex 105 82 2
      vertex 115 0 2
    endloop
  endfacet
  facet normal 0 0 1
    outer loop
      vertex 105 82 2
      vertex 105 80 2
      vertex 115 0 2
    endloop
  endfacet
  facet normal 0 0 1
    outer loop
      vertex 105 2 2
      vertex 10 8 2
      vertex 10 2 2
    endloop
  endfacet
  facet normal 0 0 1
    outer loop
      vertex 10 10 2
      vertex 0 82 2
      vertex 10 8 2
    endloop
  endfacet
  facet normal 0 0 1
    outer loop
      vertex 10 72 2
      vertex 0 82 2
      vertex 10 10 2
    endloop
  endfacet
  facet normal 0 0 1
    outer loop
      vertex 105 72 2
      vertex 105 10 2
      vertex 115 0 2
    endloop
  endfacet
  facet normal 0 0 1
    outer loop
      vertex 105 10 2
      vertex 105 8 2
      vertex 115 0 2
    endloop
  endfacet
  facet normal 0 0 1
    outer loop
      vertex 10 74 2
      vertex 10 80 2
      vertex 0 82 2
    endloop
  endfacet
  facet normal 0 0 1
    outer loop
      vertex 25 17.5 2
      vertex 10 72 2
      vertex 10 10 2
    endloop
  endfacet
  facet normal 0 0 1
    outer loop
      vertex 10 74 2
      vertex 0 82 2
      vertex 10 72 2
    endloop
  endfacet
  facet normal 0 0 1
    outer loop
      vertex 10 10 2
      vertex 105 10 2
      vertex 90 17.5 2
    endloop
  endfacet
  facet normal 0 0 1
    outer loop
      vertex 105 80 2
      vertex 105 74 2
      vertex 115 0 2
    endloop
  endfacet
  facet normal 0 0 1
    outer loop
      vertex 105 80 2
      vertex 10 80 2
      vertex 105 74 2
    endloop
  endfacet
  facet normal 0 0 1
    outer loop
      vertex 105 74 2
      vertex 105 72 2
      vertex 115 0 2
    endloop
  endfacet
  facet normal 0 0 1
    outer loop
      vertex 10 10 2
      vertex 90 17.5 2
      vertex 25 17.5 2
    endloop
  endfacet
  facet normal 0 0 1
    outer loop
      vertex 105 72 2
      vertex 90 64.5 2
      vertex 105 10 2
    endloop
  endfacet
  facet normal 0 0 1
    outer loop
      vertex 25 64.5 2
      vertex 10 72 2
      vertex 25 17.5 2
    endloop
  endfacet
  facet normal 0 0 1
    outer loop
      vertex 10 80 2
      vertex 10 82 2
      vertex 0 82 2
    endloop
  endfacet
  facet normal 0 0 1
    outer loop
      vertex 10 74 2
      vertex 105 74 2
      vertex 10 80 2
    endloop
  endfacet
  facet normal 0 0 1
    outer loop
      vertex 90 64.5 2
      vertex 90 17.5 2
      vertex 105 10 2
    endloop
  endfacet
  facet normal 0 0 1
    outer loop
      vertex 105 8 2
      vertex 105 2 2
      vertex 115 0 2
    endloop
  endfacet
  facet normal 0 0 1
    outer loop
      vertex 105 8 2
      vertex 10 8 2
      vertex 105 2 2
    endloop
  endfacet
  facet normal -1 0 0
    outer loop
      vertex 10 0 2
      vertex 10 0 15
      vertex 10 2 2
    endloop
  endfacet
  facet normal -1 0 0
    outer loop
      vertex 10 2 2
      vertex 10 0 15
      vertex 10 2 15
    endloop
  endfacet
  facet normal 0 0 1
    outer loop
      vertex 10 2 15
      vertex 10 0 15
      vertex 105 0 15
    endloop
  endfacet
  facet normal 0 0 1
    outer loop
      vertex 105 2 15
      vertex 10 2 15
      vertex 105 0 15
    endloop
  endfacet
  facet normal 1 0 0
    outer loop
      vertex 105 0 15
      vertex 105 0 2
      vertex 105 2 2
    endloop
  endfacet
  facet normal 1 0 0
    outer loop
      vertex 105 2 15
      vertex 105 0 15
      vertex 105 2 2
    endloop
  endfacet
  facet normal 1 0 0
    outer loop
      vertex 115 0 2
      vertex 115 0 0
      vertex 115 82 0
    endloop
  endfacet
  facet normal 1 0 0
    outer loop
      vertex 115 82 2
      vertex 115 0 2
      vertex 115 82 0
    endloop
  endfacet
  facet normal 1 0 0
    outer loop
      vertex 25 64.5 0
      vertex 25 64.5 2
      vertex 25 17.5 2
    endloop
  endfacet
  facet normal 1 0 0
    outer loop
      vertex 25 17.5 0
      vertex 25 64.5 0
      vertex 25 17.5 2
    endloop
  endfacet
  facet normal 0 -1 0
    outer loop
      vertex 90 64.5 0
      vertex 90 64.5 2
      vertex 25 64.5 2
    endloop
  endfacet
  facet normal 0 -1 0
    outer loop
      vertex 25 64.5 0
      vertex 90 64.5 0
      vertex 25 64.5 2
    endloop
  endfacet
  facet normal -1 0 0
    outer loop
      vertex 90 64.5 2
      vertex 90 64.5 0
      vertex 90 17.5 2
    endloop
  endfacet
  facet normal -1 0 0
    outer loop
      vertex 90 17.5 2
      vertex 90 64.5 0
      vertex 90 17.5 0
    endloop
  endfacet
  facet normal 0 1 0
    outer loop
      vertex 90 17.5 2
      vertex 90 17.5 0
      vertex 25 17.5 2
    endloop
  endfacet
  facet normal 0 1 0
    outer loop
      vertex 25 17.5 2
      vertex 90 17.5 0
      vertex 25 17.5 0
    endloop
  endfacet
  facet normal 1 0 0
    outer loop
      vertex 105 80 15
      vertex 105 80 2
      vertex 105 82 2
    endloop
  endfacet
  facet normal 1 0 0
    outer loop
      vertex 105 82 15
      vertex 105 80 15
      vertex 105 82 2
    endloop
  endfacet
  facet normal 0 0 1
    outer loop
      vertex 10 82 15
      vertex 10 80 15
      vertex 105 80 15
    endloop
  endfacet
  facet normal 0 0 1
    outer loop
      vertex 105 82 15
      vertex 10 82 15
      vertex 105 80 15
    endloop
  endfacet
  facet normal -1 0 0
    outer loop
      vertex 10 80 2
      vertex 10 80 15
      vertex 10 82 2
    endloop
  endfacet
  facet normal -1 0 0
    outer loop
      vertex 10 82 2
      vertex 10 80 15
      vertex 10 82 15
    endloop
  endfacet
  facet normal 0 -1 0
    outer loop
      vertex 10 80 15
      vertex 10 80 2
      vertex 105 80 2
    endloop
  endfacet
  facet normal 0 -1 0
    outer loop
      vertex 105 80 15
      vertex 10 80 15
      vertex 105 80 2
    endloop
  endfacet
  facet normal 0 1 0
    outer loop
      vertex 10 2 2
      vertex 10 2 15
      vertex 105 2 2
    endloop
  endfacet
  facet normal 0 1 0
    outer loop
      vertex 105 2 2
      vertex 10 2 15
      vertex 105 2 15
    endloop
  endfacet
  facet normal -1 0 0
    outer loop
      vertex 10 8 2
      vertex 10 8 15
      vertex 10 10 2
    endloop
  endfacet
  facet normal -1 0 0
    outer loop
      vertex 10 10 2
      vertex 10 8 15
      vertex 10 10 15
    endloop
  endfacet
  facet normal 0 -1 0
    outer loop
      vertex 10 8 15
      vertex 10 8 2
      vertex 105 8 2
    endloop
  endfacet
  facet normal 0 -1 0
    outer loop
      vertex 105 8 15
      vertex 10 8 15
      vertex 105 8 2
    endloop
  endfacet
  facet normal 1 0 0
    outer loop
      vertex 105 8 15
      vertex 105 8 2
      vertex 105 10 2
    endloop
  endfacet
  facet normal 1 0 0
    outer loop
      vertex 105 10 15
      vertex 105 8 15
      vertex 105 10 2
    endloop
  endfacet
  facet normal 0 1 0
    outer loop
      vertex 10 10 2
      vertex 10 10 15
      vertex 105 10 2
    endloop
  endfacet
  facet normal 0 1 0
    outer loop
      vertex 105 10 2
      vertex 10 10 15
      vertex 105 10 15
    endloop
  endfacet
  facet normal -1 0 0
    outer loop
      vertex 10 72 2
      vertex 10 72 15
      vertex 10 74 2
    endloop
  endfacet
  facet normal -1 0 0
    outer loop
      vertex 10 74 2
      vertex 10 72 15
      vertex 10 74 15
    endloop
  endfacet
  facet normal 0 -1 0
    outer loop
      vertex 10 72 15
      vertex 10 72 2
      vertex 105 72 2
    endloop
  endfacet
  facet normal 0 -1 0
    outer loop
      vertex 105 72 15
      vertex 10 72 15
      vertex 105 72 2
    endloop
  endfacet
  facet normal 1 0 0
    outer loop
      vertex 105 72 15
      vertex 105 72 2
      vertex 105 74 2
    endloop
  endfacet
  facet normal 1 0 0
    outer loop
      vertex 105 74 15
      vertex 105 72 15
      vertex 105 74 2
    endloop
  endfacet
  facet normal 0 1 0
    outer loop
      vertex 10 74 2
      vertex 10 74 15
      vertex 105 74 2
    endloop
  endfacet
  facet normal 0 1 0
    outer loop
      vertex 105 74 2
      vertex 10 74 15
      vertex 105 74 15
    endloop
  endfacet
  facet normal 0 0 1
    outer loop
      vertex 10 10 15
      vertex 10 8 15
      vertex 105 8 15
    endloop
  endfacet
  facet normal 0 0 1
    outer loop
      vertex 105 10 15
      vertex 10 10 15
      vertex 105 8 15
    endloop
  endfacet
  facet normal 0 0 1
    outer loop
      vertex 10 74 15
      vertex 10 72 15
      vertex 105 72 15
    endloop
  endfacet
  facet normal 0 0 1
    outer loop
      vertex 105 74 15
      vertex 10 74 15
      vertex 105 72 15
    endloop
  endfacet
endsolid OpenSCAD_Model
