solid OpenSCAD_Model
  facet normal -1 0 0
    outer loop
      vertex 0 -84.5 0
      vertex 0 -84.5 2.5
      vertex 0 -2.5 0
    endloop
  endfacet
  facet normal -1 0 0
    outer loop
      vertex 0 -2.5 0
      vertex 0 -84.5 2.5
      vertex 0 -2.5 2.5
    endloop
  endfacet
  facet normal 0 -1 0
    outer loop
      vertex 0 -84.5 2.5
      vertex 0 -84.5 0
      vertex 115 -84.5 0
    endloop
  endfacet
  facet normal 0 -1 0
    outer loop
      vertex 10 -84.5 2.5
      vertex 0 -84.5 2.5
      vertex 115 -84.5 0
    endloop
  endfacet
  facet normal 0 -1 0
    outer loop
      vertex 105 -84.5 2.5
      vertex 10 -84.5 2.5
      vertex 115 -84.5 0
    endloop
  endfacet
  facet normal 0 -1 0
    outer loop
      vertex 115 -84.5 2.5
      vertex 105 -84.5 2.5
      vertex 115 -84.5 0
    endloop
  endfacet
  facet normal 0 -1 0
    outer loop
      vertex 105 -84.5 15
      vertex 10 -84.5 2.5
      vertex 105 -84.5 2.5
    endloop
  endfacet
  facet normal 0 -1 0
    outer loop
      vertex 10 -84.5 15
      vertex 10 -84.5 2.5
      vertex 105 -84.5 15
    endloop
  endfacet
  facet normal 0 0 -1
    outer loop
      vertex 90 -25 0
      vertex 115 -84.5 0
      vertex 90 -72 0
    endloop
  endfacet
  facet normal 0 0 -1
    outer loop
      vertex 90 -25 0
      vertex 0 -2.5 0
      vertex 115 -2.5 0
    endloop
  endfacet
  facet normal 0 0 -1
    outer loop
      vertex 0 -84.5 0
      vertex 0 -2.5 0
      vertex 25 -25 0
    endloop
  endfacet
  facet normal 0 0 -1
    outer loop
      vertex 0 -84.5 0
      vertex 25 -25 0
      vertex 25 -72 0
    endloop
  endfacet
  facet normal 0 0 -1
    outer loop
      vertex 0 -84.5 0
      vertex 25 -72 0
      vertex 115 -84.5 0
    endloop
  endfacet
  facet normal 0 0 -1
    outer loop
      vertex 25 -72 0
      vertex 90 -72 0
      vertex 115 -84.5 0
    endloop
  endfacet
  facet normal 0 0 -1
    outer loop
      vertex 115 -84.5 0
      vertex 90 -25 0
      vertex 115 -2.5 0
    endloop
  endfacet
  facet normal 0 0 -1
    outer loop
      vertex 25 -25 0
      vertex 0 -2.5 0
      vertex 90 -25 0
    endloop
  endfacet
  facet normal 0 1 0
    outer loop
      vertex 0 -2.5 0
      vertex 0 -2.5 2.5
      vertex 115 -2.5 0
    endloop
  endfacet
  facet normal 0 1 0
    outer loop
      vertex 115 -2.5 0
      vertex 0 -2.5 2.5
      vertex 10 -2.5 2.5
    endloop
  endfacet
  facet normal 0 1 0
    outer loop
      vertex 115 -2.5 0
      vertex 10 -2.5 2.5
      vertex 10 -2.5 15
    endloop
  endfacet
  facet normal 0 1 0
    outer loop
      vertex 105 -2.5 2.5
      vertex 10 -2.5 15
      vertex 105 -2.5 15
    endloop
  endfacet
  facet normal 0 1 0
    outer loop
      vertex 115 -2.5 0
      vertex 10 -2.5 15
      vertex 105 -2.5 2.5
    endloop
  endfacet
  facet normal 0 1 0
    outer loop
      vertex 115 -2.5 2.5
      vertex 115 -2.5 0
      vertex 105 -2.5 2.5
    endloop
  endfacet
  facet normal 0 0 1
    outer loop
      vertex 2.5 -27.25 2.5
      vertex 0 -84.5 2.5
      vertex 10 -84.5 2.5
    endloop
  endfacet
  facet normal 0 0 1
    outer loop
      vertex 25 -72 2.5
      vertex 10 -19.75 2.5
      vertex 10 -27.25 2.5
    endloop
  endfacet
  facet normal 0 0 1
    outer loop
      vertex 10 -13 2.5
      vertex 10 -2.5 2.5
      vertex 0 -2.5 2.5
    endloop
  endfacet
  facet normal 0 0 1
    outer loop
      vertex 115 -84.5 2.5
      vertex 105 -74 2.5
      vertex 105 -84.5 2.5
    endloop
  endfacet
  facet normal 0 0 1
    outer loop
      vertex 115 -2.5 2.5
      vertex 105 -74 2.5
      vertex 115 -84.5 2.5
    endloop
  endfacet
  facet normal 0 0 1
    outer loop
      vertex 101.5 -19.75 2.5
      vertex 109 -19.75 2.5
      vertex 105 -13 2.5
    endloop
  endfacet
  facet normal 0 0 1
    outer loop
      vertex 115 -2.5 2.5
      vertex 105 -2.5 2.5
      vertex 105 -13 2.5
    endloop
  endfacet
  facet normal 0 0 1
    outer loop
      vertex 10 -19.75 2.5
      vertex 10 -13 2.5
      vertex 2.5 -19.75 2.5
    endloop
  endfacet
  facet normal 0 0 1
    outer loop
      vertex 2.5 -27.25 2.5
      vertex 2.5 -19.75 2.5
      vertex 0 -2.5 2.5
    endloop
  endfacet
  facet normal 0 0 1
    outer loop
      vertex 0 -2.5 2.5
      vertex 0 -84.5 2.5
      vertex 2.5 -27.25 2.5
    endloop
  endfacet
  facet normal 0 0 1
    outer loop
      vertex 25 -72 2.5
      vertex 25 -25 2.5
      vertex 10 -19.75 2.5
    endloop
  endfacet
  facet normal 0 0 1
    outer loop
      vertex 10 -13 2.5
      vertex 0 -2.5 2.5
      vertex 2.5 -19.75 2.5
    endloop
  endfacet
  facet normal 0 0 1
    outer loop
      vertex 25 -25 2.5
      vertex 10 -13 2.5
      vertex 10 -19.75 2.5
    endloop
  endfacet
  facet normal 0 0 1
    outer loop
      vertex 25 -72 2.5
      vertex 10 -27.25 2.5
      vertex 10 -74 2.5
    endloop
  endfacet
  facet normal 0 0 1
    outer loop
      vertex 25 -25 2.5
      vertex 90 -25 2.5
      vertex 10 -13 2.5
    endloop
  endfacet
  facet normal 0 0 1
    outer loop
      vertex 105 -74 2.5
      vertex 25 -72 2.5
      vertex 10 -74 2.5
    endloop
  endfacet
  facet normal 0 0 1
    outer loop
      vertex 90 -25 2.5
      vertex 90 -72 2.5
      vertex 105 -74 2.5
    endloop
  endfacet
  facet normal 0 0 1
    outer loop
      vertex 101.5 -27.25 2.5
      vertex 90 -25 2.5
      vertex 105 -74 2.5
    endloop
  endfacet
  facet normal 0 0 1
    outer loop
      vertex 10 -74 2.5
      vertex 2.5 -27.25 2.5
      vertex 10 -84.5 2.5
    endloop
  endfacet
  facet normal 0 0 1
    outer loop
      vertex 105 -74 2.5
      vertex 90 -72 2.5
      vertex 25 -72 2.5
    endloop
  endfacet
  facet normal 0 0 1
    outer loop
      vertex 109 -27.25 2.5
      vertex 101.5 -27.25 2.5
      vertex 105 -74 2.5
    endloop
  endfacet
  facet normal 0 0 1
    outer loop
      vertex 101.5 -19.75 2.5
      vertex 90 -25 2.5
      vertex 101.5 -27.25 2.5
    endloop
  endfacet
  facet normal 0 0 1
    outer loop
      vertex 105 -13 2.5
      vertex 90 -25 2.5
      vertex 101.5 -19.75 2.5
    endloop
  endfacet
  facet normal 0 0 1
    outer loop
      vertex 115 -2.5 2.5
      vertex 105 -13 2.5
      vertex 109 -19.75 2.5
    endloop
  endfacet
  facet normal 0 0 1
    outer loop
      vertex 115 -2.5 2.5
      vertex 109 -27.25 2.5
      vertex 105 -74 2.5
    endloop
  endfacet
  facet normal 0 0 1
    outer loop
      vertex 115 -2.5 2.5
      vertex 109 -19.75 2.5
      vertex 109 -27.25 2.5
    endloop
  endfacet
  facet normal 0 0 1
    outer loop
      vertex 105 -13 2.5
      vertex 10 -13 2.5
      vertex 90 -25 2.5
    endloop
  endfacet
  facet normal 0 0 1
    outer loop
      vertex 10 -27.25 2.5
      vertex 2.5 -27.25 2.5
      vertex 10 -74 2.5
    endloop
  endfacet
  facet normal -1 0 0
    outer loop
      vertex 10 -76.5 7.5
      vertex 10 -74 2.5
      vertex 10 -82 7.5
    endloop
  endfacet
  facet normal -1 0 0
    outer loop
      vertex 10 -84.5 2.5
      vertex 10 -84.5 15
      vertex 10 -82 7.5
    endloop
  endfacet
  facet normal -1 0 0
    outer loop
      vertex 10 -84.5 2.5
      vertex 10 -82 7.5
      vertex 10 -74 2.5
    endloop
  endfacet
  facet normal -1 0 0
    outer loop
      vertex 10 -31.75 30
      vertex 10 -27.25 32.5
      vertex 10 -31.75 2.5
    endloop
  endfacet
  facet normal -1 0 0
    outer loop
      vertex 10 -74 2.5
      vertex 10 -76.5 7.5
      vertex 10 -76.5 15
    endloop
  endfacet
  facet normal -1 0 0
    outer loop
      vertex 10 -74 2.5
      vertex 10 -76.5 15
      vertex 10 -74.25 15
    endloop
  endfacet
  facet normal -1 0 0
    outer loop
      vertex 10 -74 2.5
      vertex 10 -74.25 15
      vertex 10 -74.25 32.5
    endloop
  endfacet
  facet normal -1 0 0
    outer loop
      vertex 10 -31.75 30
      vertex 10 -74.25 32.5
      vertex 10 -27.25 32.5
    endloop
  endfacet
  facet normal -1 0 0
    outer loop
      vertex 10 -31.75 2.5
      vertex 10 -27.25 32.5
      vertex 10 -27.25 2.5
    endloop
  endfacet
  facet normal -1 0 0
    outer loop
      vertex 10 -69.75 30
      vertex 10 -74.25 32.5
      vertex 10 -31.75 30
    endloop
  endfacet
  facet normal -1 0 0
    outer loop
      vertex 10 -74 2.5
      vertex 10 -74.25 32.5
      vertex 10 -69.75 30
    endloop
  endfacet
  facet normal -1 0 0
    outer loop
      vertex 10 -82 7.5
      vertex 10 -84.5 15
      vertex 10 -82 15
    endloop
  endfacet
  facet normal -1 0 0
    outer loop
      vertex 10 -74 2.5
      vertex 10 -69.75 30
      vertex 10 -69.75 2.5
    endloop
  endfacet
  facet normal 0 0 1
    outer loop
      vertex 10 -82 15
      vertex 10 -84.5 15
      vertex 105 -84.5 15
    endloop
  endfacet
  facet normal 0 0 1
    outer loop
      vertex 105 -82 15
      vertex 10 -82 15
      vertex 105 -84.5 15
    endloop
  endfacet
  facet normal 1 0 0
    outer loop
      vertex 105 -82 7.5
      vertex 105 -84.5 2.5
      vertex 105 -74 2.5
    endloop
  endfacet
  facet normal 1 0 0
    outer loop
      vertex 105 -82 7.5
      vertex 105 -82 15
      vertex 105 -84.5 15
    endloop
  endfacet
  facet normal 1 0 0
    outer loop
      vertex 105 -74 15
      vertex 105 -76.5 15
      vertex 105 -74 2.5
    endloop
  endfacet
  facet normal 1 0 0
    outer loop
      vertex 105 -76.5 15
      vertex 105 -76.5 7.5
      vertex 105 -74 2.5
    endloop
  endfacet
  facet normal 1 0 0
    outer loop
      vertex 105 -84.5 15
      vertex 105 -84.5 2.5
      vertex 105 -82 7.5
    endloop
  endfacet
  facet normal 1 0 0
    outer loop
      vertex 105 -76.5 7.5
      vertex 105 -82 7.5
      vertex 105 -74 2.5
    endloop
  endfacet
  facet normal 1 0 0
    outer loop
      vertex 115 -84.5 2.5
      vertex 115 -84.5 0
      vertex 115 -2.5 0
    endloop
  endfacet
  facet normal 1 0 0
    outer loop
      vertex 115 -2.5 2.5
      vertex 115 -84.5 2.5
      vertex 115 -2.5 0
    endloop
  endfacet
  facet normal 1 0 0
    outer loop
      vertex 25 -25 0
      vertex 25 -25 2.5
      vertex 25 -72 2.5
    endloop
  endfacet
  facet normal 1 0 0
    outer loop
      vertex 25 -72 0
      vertex 25 -25 0
      vertex 25 -72 2.5
    endloop
  endfacet
  facet normal 0 -1 0
    outer loop
      vertex 90 -25 0
      vertex 90 -25 2.5
      vertex 25 -25 2.5
    endloop
  endfacet
  facet normal 0 -1 0
    outer loop
      vertex 25 -25 0
      vertex 90 -25 0
      vertex 25 -25 2.5
    endloop
  endfacet
  facet normal -1 0 0
    outer loop
      vertex 90 -25 2.5
      vertex 90 -25 0
      vertex 90 -72 2.5
    endloop
  endfacet
  facet normal -1 0 0
    outer loop
      vertex 90 -72 2.5
      vertex 90 -25 0
      vertex 90 -72 0
    endloop
  endfacet
  facet normal 0 1 0
    outer loop
      vertex 90 -72 2.5
      vertex 90 -72 0
      vertex 25 -72 2.5
    endloop
  endfacet
  facet normal 0 1 0
    outer loop
      vertex 25 -72 2.5
      vertex 90 -72 0
      vertex 25 -72 0
    endloop
  endfacet
  facet normal 1 0 0
    outer loop
      vertex 105 -10.5 7.5
      vertex 105 -13 2.5
      vertex 105 -2.5 2.5
    endloop
  endfacet
  facet normal 1 0 0
    outer loop
      vertex 105 -10.5 7.5
      vertex 105 -10.5 15
      vertex 105 -13 15
    endloop
  endfacet
  facet normal 1 0 0
    outer loop
      vertex 105 -2.5 15
      vertex 105 -5 15
      vertex 105 -2.5 2.5
    endloop
  endfacet
  facet normal 1 0 0
    outer loop
      vertex 105 -5 15
      vertex 105 -5 7.5
      vertex 105 -2.5 2.5
    endloop
  endfacet
  facet normal 1 0 0
    outer loop
      vertex 105 -13 15
      vertex 105 -13 2.5
      vertex 105 -10.5 7.5
    endloop
  endfacet
  facet normal 1 0 0
    outer loop
      vertex 105 -5 7.5
      vertex 105 -10.5 7.5
      vertex 105 -2.5 2.5
    endloop
  endfacet
  facet normal 0 0 1
    outer loop
      vertex 10 -2.5 15
      vertex 10 -5 15
      vertex 105 -5 15
    endloop
  endfacet
  facet normal 0 0 1
    outer loop
      vertex 105 -2.5 15
      vertex 10 -2.5 15
      vertex 105 -5 15
    endloop
  endfacet
  facet normal -1 0 0
    outer loop
      vertex 10 -19.75 2.5
      vertex 10 -19.75 32.5
      vertex 10 -13 2.5
    endloop
  endfacet
  facet normal -1 0 0
    outer loop
      vertex 10 -13 2.5
      vertex 10 -19.75 32.5
      vertex 10 -12.25 32.5
    endloop
  endfacet
  facet normal -1 0 0
    outer loop
      vertex 10 -13 2.5
      vertex 10 -12.25 32.5
      vertex 10 -12.25 15
    endloop
  endfacet
  facet normal -1 0 0
    outer loop
      vertex 10 -13 2.5
      vertex 10 -12.25 15
      vertex 10 -10.5 15
    endloop
  endfacet
  facet normal -1 0 0
    outer loop
      vertex 10 -13 2.5
      vertex 10 -10.5 15
      vertex 10 -10.5 7.5
    endloop
  endfacet
  facet normal -1 0 0
    outer loop
      vertex 10 -13 2.5
      vertex 10 -10.5 7.5
      vertex 10 -5 7.5
    endloop
  endfacet
  facet normal -1 0 0
    outer loop
      vertex 10 -5 7.5
      vertex 10 -5 15
      vertex 10 -2.5 15
    endloop
  endfacet
  facet normal -1 0 0
    outer loop
      vertex 10 -5 7.5
      vertex 10 -2.5 15
      vertex 10 -2.5 2.5
    endloop
  endfacet
  facet normal -1 0 0
    outer loop
      vertex 10 -5 7.5
      vertex 10 -2.5 2.5
      vertex 10 -13 2.5
    endloop
  endfacet
  facet normal 0 -1 0
    outer loop
      vertex 102 -13 2.5
      vertex 10 -13 2.5
      vertex 105 -13 2.5
    endloop
  endfacet
  facet normal 0 -1 0
    outer loop
      vertex 105 -13 15
      vertex 102 -13 2.5
      vertex 105 -13 2.5
    endloop
  endfacet
  facet normal 0 -1 0
    outer loop
      vertex 102 -13 15
      vertex 102 -13 2.5
      vertex 105 -13 15
    endloop
  endfacet
  facet normal 0 1 0
    outer loop
      vertex 105 -74 2.5
      vertex 10 -74 2.5
      vertex 102 -74 2.5
    endloop
  endfacet
  facet normal 0 1 0
    outer loop
      vertex 105 -74 2.5
      vertex 102 -74 2.5
      vertex 102 -74 15
    endloop
  endfacet
  facet normal 0 1 0
    outer loop
      vertex 105 -74 2.5
      vertex 102 -74 15
      vertex 105 -74 15
    endloop
  endfacet
  facet normal -1 0 0
    outer loop
      vertex 2.5 -27.25 2.5
      vertex 2.5 -27.25 32.5
      vertex 2.5 -19.75 2.5
    endloop
  endfacet
  facet normal -1 0 0
    outer loop
      vertex 2.5 -19.75 2.5
      vertex 2.5 -27.25 32.5
      vertex 2.5 -19.75 32.5
    endloop
  endfacet
  facet normal 0 -1 1.22465e-16
    outer loop
      vertex 2.5 -27.25 32.5
      vertex 2.5 -27.25 2.5
      vertex 10 -27.25 2.5
    endloop
  endfacet
  facet normal 0 -1 1.22465e-16
    outer loop
      vertex 10 -27.25 32.5
      vertex 2.5 -27.25 32.5
      vertex 10 -27.25 2.5
    endloop
  endfacet
  facet normal 0 1 -1.22465e-16
    outer loop
      vertex 2.5 -19.75 2.5
      vertex 2.5 -19.75 32.5
      vertex 10 -19.75 2.5
    endloop
  endfacet
  facet normal 0 1 -1.22465e-16
    outer loop
      vertex 10 -19.75 2.5
      vertex 2.5 -19.75 32.5
      vertex 10 -19.75 32.5
    endloop
  endfacet
  facet normal 0 -1 1.22465e-16
    outer loop
      vertex 102 -27.25 2.5
      vertex 101.5 -27.25 2.5
      vertex 109 -27.25 2.5
    endloop
  endfacet
  facet normal 0 -1 1.22465e-16
    outer loop
      vertex 109 -27.25 32.5
      vertex 102 -27.25 2.5
      vertex 109 -27.25 2.5
    endloop
  endfacet
  facet normal 0 -1 1.22465e-16
    outer loop
      vertex 102 -27.25 32.5
      vertex 102 -27.25 2.5
      vertex 109 -27.25 32.5
    endloop
  endfacet
  facet normal 1 0 0
    outer loop
      vertex 109 -27.25 32.5
      vertex 109 -27.25 2.5
      vertex 109 -19.75 2.5
    endloop
  endfacet
  facet normal 1 0 0
    outer loop
      vertex 109 -19.75 32.5
      vertex 109 -27.25 32.5
      vertex 109 -19.75 2.5
    endloop
  endfacet
  facet normal 0 1 -1.22465e-16
    outer loop
      vertex 109 -19.75 2.5
      vertex 101.5 -19.75 2.5
      vertex 102 -19.75 2.5
    endloop
  endfacet
  facet normal 0 1 -1.22465e-16
    outer loop
      vertex 109 -19.75 2.5
      vertex 102 -19.75 2.5
      vertex 102 -19.75 32.5
    endloop
  endfacet
  facet normal 0 1 -1.22465e-16
    outer loop
      vertex 109 -19.75 2.5
      vertex 102 -19.75 32.5
      vertex 109 -19.75 32.5
    endloop
  endfacet
  facet normal 0 -1.22465e-16 -1
    outer loop
      vertex 98.5 -70.75 2.5
      vertex 102 -74 2.5
      vertex 13.5 -70.75 2.5
    endloop
  endfacet
  facet normal 0 -1.22465e-16 -1
    outer loop
      vertex 10 -74 2.5
      vertex 10 -69.75 2.5
      vertex 13.5 -70.75 2.5
    endloop
  endfacet
  facet normal 0 -1.22465e-16 -1
    outer loop
      vertex 10 -74 2.5
      vertex 13.5 -70.75 2.5
      vertex 102 -74 2.5
    endloop
  endfacet
  facet normal 0 -1.22465e-16 -1
    outer loop
      vertex 10 -31.75 2.5
      vertex 13.5 -15.75 2.5
      vertex 13.5 -31.75 2.5
    endloop
  endfacet
  facet normal 0 -1.22465e-16 -1
    outer loop
      vertex 102 -74 2.5
      vertex 98.5 -70.75 2.5
      vertex 98.5 -15.75 2.5
    endloop
  endfacet
  facet normal 0 -1.22465e-16 -1
    outer loop
      vertex 102 -27.25 2.5
      vertex 102 -74 2.5
      vertex 101.5 -27.25 2.5
    endloop
  endfacet
  facet normal 0 -1.22465e-16 -1
    outer loop
      vertex 13.5 -15.75 2.5
      vertex 10 -31.75 2.5
      vertex 10 -27.25 2.5
    endloop
  endfacet
  facet normal 0 -1.22465e-16 -1
    outer loop
      vertex 13.5 -15.75 2.5
      vertex 10 -27.25 2.5
      vertex 10 -19.75 2.5
    endloop
  endfacet
  facet normal 0 -1.22465e-16 -1
    outer loop
      vertex 13.5 -15.75 2.5
      vertex 10 -19.75 2.5
      vertex 10 -13 2.5
    endloop
  endfacet
  facet normal 0 -1.22465e-16 -1
    outer loop
      vertex 13.5 -15.75 2.5
      vertex 10 -13 2.5
      vertex 98.5 -15.75 2.5
    endloop
  endfacet
  facet normal 0 -1.22465e-16 -1
    outer loop
      vertex 98.5 -15.75 2.5
      vertex 10 -13 2.5
      vertex 102 -13 2.5
    endloop
  endfacet
  facet normal 0 -1.22465e-16 -1
    outer loop
      vertex 98.5 -15.75 2.5
      vertex 102 -13 2.5
      vertex 102 -19.75 2.5
    endloop
  endfacet
  facet normal 0 -1.22465e-16 -1
    outer loop
      vertex 98.5 -15.75 2.5
      vertex 102 -19.75 2.5
      vertex 101.5 -19.75 2.5
    endloop
  endfacet
  facet normal 0 -1.22465e-16 -1
    outer loop
      vertex 98.5 -15.75 2.5
      vertex 101.5 -19.75 2.5
      vertex 101.5 -27.25 2.5
    endloop
  endfacet
  facet normal 0 -1.22465e-16 -1
    outer loop
      vertex 98.5 -15.75 2.5
      vertex 101.5 -27.25 2.5
      vertex 102 -74 2.5
    endloop
  endfacet
  facet normal 0 -1.22465e-16 -1
    outer loop
      vertex 13.5 -70.75 2.5
      vertex 10 -69.75 2.5
      vertex 13.5 -69.75 2.5
    endloop
  endfacet
  facet normal 0 1 -1.22465e-16
    outer loop
      vertex 13.5 -69.75 30
      vertex 13.5 -69.75 2.5
      vertex 10 -69.75 30
    endloop
  endfacet
  facet normal 0 1 -1.22465e-16
    outer loop
      vertex 10 -69.75 30
      vertex 13.5 -69.75 2.5
      vertex 10 -69.75 2.5
    endloop
  endfacet
  facet normal 0 -1.22465e-16 -1
    outer loop
      vertex 13.5 -31.75 30
      vertex 13.5 -69.75 30
      vertex 10 -31.75 30
    endloop
  endfacet
  facet normal 0 -1.22465e-16 -1
    outer loop
      vertex 10 -31.75 30
      vertex 13.5 -69.75 30
      vertex 10 -69.75 30
    endloop
  endfacet
  facet normal 0 -1 1.22465e-16
    outer loop
      vertex 13.5 -31.75 2.5
      vertex 13.5 -31.75 30
      vertex 10 -31.75 30
    endloop
  endfacet
  facet normal 0 -1 1.22465e-16
    outer loop
      vertex 10 -31.75 2.5
      vertex 13.5 -31.75 2.5
      vertex 10 -31.75 30
    endloop
  endfacet
  facet normal 0 1.22465e-16 1
    outer loop
      vertex 5.375 -25.0155 32.5
      vertex 2.5 -27.25 32.5
      vertex 10 -27.25 32.5
    endloop
  endfacet
  facet normal 0 1.22465e-16 1
    outer loop
      vertex 8 -23.5 32.5
      vertex 7.125 -25.0155 32.5
      vertex 10 -27.25 32.5
    endloop
  endfacet
  facet normal 0 1.22465e-16 1
    outer loop
      vertex 13.5 -15.75 32.5
      vertex 98.5 -15.75 32.5
      vertex 102 -12.25 32.5
    endloop
  endfacet
  facet normal 0 1.22465e-16 1
    outer loop
      vertex 104.375 -25.0155 32.5
      vertex 102 -27.25 32.5
      vertex 109 -27.25 32.5
    endloop
  endfacet
  facet normal 0 1.22465e-16 1
    outer loop
      vertex 104.375 -21.9845 32.5
      vertex 109 -19.75 32.5
      vertex 102 -19.75 32.5
    endloop
  endfacet
  facet normal 0 1.22465e-16 1
    outer loop
      vertex 13.5 -15.75 32.5
      vertex 102 -12.25 32.5
      vertex 10 -12.25 32.5
    endloop
  endfacet
  facet normal 0 1.22465e-16 1
    outer loop
      vertex 98.5 -15.75 32.5
      vertex 103.5 -23.5 32.5
      vertex 102 -19.75 32.5
    endloop
  endfacet
  facet normal 0 1.22465e-16 1
    outer loop
      vertex 7.125 -25.0155 32.5
      vertex 5.375 -25.0155 32.5
      vertex 10 -27.25 32.5
    endloop
  endfacet
  facet normal 0 1.22465e-16 1
    outer loop
      vertex 4.5 -23.5 32.5
      vertex 2.5 -27.25 32.5
      vertex 5.375 -25.0155 32.5
    endloop
  endfacet
  facet normal 0 1.22465e-16 1
    outer loop
      vertex 98.5 -70.75 32.5
      vertex 13.5 -70.75 32.5
      vertex 102 -74.25 32.5
    endloop
  endfacet
  facet normal 0 1.22465e-16 1
    outer loop
      vertex 2.5 -19.75 32.5
      vertex 2.5 -27.25 32.5
      vertex 4.5 -23.5 32.5
    endloop
  endfacet
  facet normal 0 1.22465e-16 1
    outer loop
      vertex 5.375 -21.9845 32.5
      vertex 7.125 -21.9845 32.5
      vertex 2.5 -19.75 32.5
    endloop
  endfacet
  facet normal 0 1.22465e-16 1
    outer loop
      vertex 10 -74.25 32.5
      vertex 13.5 -70.75 32.5
      vertex 10 -27.25 32.5
    endloop
  endfacet
  facet normal 0 1.22465e-16 1
    outer loop
      vertex 10 -74.25 32.5
      vertex 102 -74.25 32.5
      vertex 13.5 -70.75 32.5
    endloop
  endfacet
  facet normal 0 1.22465e-16 1
    outer loop
      vertex 98.5 -15.75 32.5
      vertex 104.375 -25.0155 32.5
      vertex 103.5 -23.5 32.5
    endloop
  endfacet
  facet normal 0 1.22465e-16 1
    outer loop
      vertex 102 -19.75 32.5
      vertex 102 -12.25 32.5
      vertex 98.5 -15.75 32.5
    endloop
  endfacet
  facet normal 0 1.22465e-16 1
    outer loop
      vertex 103.5 -23.5 32.5
      vertex 104.375 -21.9845 32.5
      vertex 102 -19.75 32.5
    endloop
  endfacet
  facet normal 0 1.22465e-16 1
    outer loop
      vertex 102 -74.25 32.5
      vertex 102 -27.25 32.5
      vertex 98.5 -70.75 32.5
    endloop
  endfacet
  facet normal 0 1.22465e-16 1
    outer loop
      vertex 98.5 -15.75 32.5
      vertex 98.5 -70.75 32.5
      vertex 102 -27.25 32.5
    endloop
  endfacet
  facet normal 0 1.22465e-16 1
    outer loop
      vertex 107 -23.5 32.5
      vertex 106.125 -25.0155 32.5
      vertex 109 -27.25 32.5
    endloop
  endfacet
  facet normal 0 1.22465e-16 1
    outer loop
      vertex 98.5 -15.75 32.5
      vertex 102 -27.25 32.5
      vertex 104.375 -25.0155 32.5
    endloop
  endfacet
  facet normal 0 1.22465e-16 1
    outer loop
      vertex 106.125 -21.9845 32.5
      vertex 109 -19.75 32.5
      vertex 104.375 -21.9845 32.5
    endloop
  endfacet
  facet normal 0 1.22465e-16 1
    outer loop
      vertex 107 -23.5 32.5
      vertex 109 -19.75 32.5
      vertex 106.125 -21.9845 32.5
    endloop
  endfacet
  facet normal 0 1.22465e-16 1
    outer loop
      vertex 109 -27.25 32.5
      vertex 109 -19.75 32.5
      vertex 107 -23.5 32.5
    endloop
  endfacet
  facet normal 0 1.22465e-16 1
    outer loop
      vertex 109 -27.25 32.5
      vertex 106.125 -25.0155 32.5
      vertex 104.375 -25.0155 32.5
    endloop
  endfacet
  facet normal 0 1.22465e-16 1
    outer loop
      vertex 10 -12.25 32.5
      vertex 10 -19.75 32.5
      vertex 13.5 -15.75 32.5
    endloop
  endfacet
  facet normal 0 1.22465e-16 1
    outer loop
      vertex 4.5 -23.5 32.5
      vertex 5.375 -21.9845 32.5
      vertex 2.5 -19.75 32.5
    endloop
  endfacet
  facet normal 0 1.22465e-16 1
    outer loop
      vertex 7.125 -21.9845 32.5
      vertex 10 -19.75 32.5
      vertex 2.5 -19.75 32.5
    endloop
  endfacet
  facet normal 0 1.22465e-16 1
    outer loop
      vertex 8 -23.5 32.5
      vertex 10 -19.75 32.5
      vertex 7.125 -21.9845 32.5
    endloop
  endfacet
  facet normal 0 1.22465e-16 1
    outer loop
      vertex 10 -27.25 32.5
      vertex 10 -19.75 32.5
      vertex 8 -23.5 32.5
    endloop
  endfacet
  facet normal 0 1.22465e-16 1
    outer loop
      vertex 13.5 -70.75 32.5
      vertex 10 -19.75 32.5
      vertex 10 -27.25 32.5
    endloop
  endfacet
  facet normal 0 1.22465e-16 1
    outer loop
      vertex 13.5 -70.75 32.5
      vertex 13.5 -15.75 32.5
      vertex 10 -19.75 32.5
    endloop
  endfacet
  facet normal 0 -1 1.22465e-16
    outer loop
      vertex 46.5 -74.25 18
      vertex 10 -74.25 15
      vertex 102 -74.25 15
    endloop
  endfacet
  facet normal 0 -1 1.22465e-16
    outer loop
      vertex 64.5 -74.25 18
      vertex 46.5 -74.25 18
      vertex 102 -74.25 15
    endloop
  endfacet
  facet normal 0 -1 1.22465e-16
    outer loop
      vertex 10 -74.25 32.5
      vertex 10 -74.25 15
      vertex 46.5 -74.25 18
    endloop
  endfacet
  facet normal 0 -1 1.22465e-16
    outer loop
      vertex 102 -74.25 32.5
      vertex 10 -74.25 32.5
      vertex 46.5 -74.25 30
    endloop
  endfacet
  facet normal 0 -1 1.22465e-16
    outer loop
      vertex 102 -74.25 32.5
      vertex 64.5 -74.25 30
      vertex 102 -74.25 15
    endloop
  endfacet
  facet normal 0 -1 1.22465e-16
    outer loop
      vertex 102 -74.25 32.5
      vertex 46.5 -74.25 30
      vertex 64.5 -74.25 30
    endloop
  endfacet
  facet normal 0 -1 1.22465e-16
    outer loop
      vertex 64.5 -74.25 30
      vertex 64.5 -74.25 18
      vertex 102 -74.25 15
    endloop
  endfacet
  facet normal 0 -1 1.22465e-16
    outer loop
      vertex 46.5 -74.25 18
      vertex 46.5 -74.25 30
      vertex 10 -74.25 32.5
    endloop
  endfacet
  facet normal 0 0 1
    outer loop
      vertex 10 -74.25 15
      vertex 10 -76.5 15
      vertex 105 -76.5 15
    endloop
  endfacet
  facet normal 0 0 1
    outer loop
      vertex 102 -74.25 15
      vertex 10 -74.25 15
      vertex 105 -76.5 15
    endloop
  endfacet
  facet normal 0 0 1
    outer loop
      vertex 105 -74 15
      vertex 102 -74.25 15
      vertex 105 -76.5 15
    endloop
  endfacet
  facet normal 0 0 1
    outer loop
      vertex 102 -74 15
      vertex 102 -74.25 15
      vertex 105 -74 15
    endloop
  endfacet
  facet normal 0 -1 0
    outer loop
      vertex 10 -76.5 15
      vertex 10 -76.5 7.5
      vertex 105 -76.5 7.5
    endloop
  endfacet
  facet normal 0 -1 0
    outer loop
      vertex 105 -76.5 15
      vertex 10 -76.5 15
      vertex 105 -76.5 7.5
    endloop
  endfacet
  facet normal 0 0 1
    outer loop
      vertex 10 -76.5 7.5
      vertex 10 -82 7.5
      vertex 105 -82 7.5
    endloop
  endfacet
  facet normal 0 0 1
    outer loop
      vertex 105 -76.5 7.5
      vertex 10 -76.5 7.5
      vertex 105 -82 7.5
    endloop
  endfacet
  facet normal 0 1 0
    outer loop
      vertex 10 -82 7.5
      vertex 10 -82 15
      vertex 105 -82 7.5
    endloop
  endfacet
  facet normal 0 1 0
    outer loop
      vertex 105 -82 7.5
      vertex 10 -82 15
      vertex 105 -82 15
    endloop
  endfacet
  facet normal 0 0 1
    outer loop
      vertex 10 -10.5 15
      vertex 10 -12.25 15
      vertex 29.5 -12.25 15
    endloop
  endfacet
  facet normal 0 0 1
    outer loop
      vertex 47.5 -12.25 15
      vertex 10 -10.5 15
      vertex 39.5 -12.25 15
    endloop
  endfacet
  facet normal 0 0 1
    outer loop
      vertex 39.5 -12.25 15
      vertex 10 -10.5 15
      vertex 29.5 -12.25 15
    endloop
  endfacet
  facet normal 0 0 1
    outer loop
      vertex 59.5 -12.25 15
      vertex 10 -10.5 15
      vertex 47.5 -12.25 15
    endloop
  endfacet
  facet normal 0 0 1
    outer loop
      vertex 59.5 -13 15
      vertex 47.5 -12.25 15
      vertex 47.5 -13 15
    endloop
  endfacet
  facet normal 0 0 1
    outer loop
      vertex 59.5 -12.25 15
      vertex 47.5 -12.25 15
      vertex 59.5 -13 15
    endloop
  endfacet
  facet normal 0 0 1
    outer loop
      vertex 102 -12.25 15
      vertex 10 -10.5 15
      vertex 59.5 -12.25 15
    endloop
  endfacet
  facet normal 0 0 1
    outer loop
      vertex 105 -10.5 15
      vertex 10 -10.5 15
      vertex 102 -12.25 15
    endloop
  endfacet
  facet normal 0 0 1
    outer loop
      vertex 105 -13 15
      vertex 102 -12.25 15
      vertex 102 -13 15
    endloop
  endfacet
  facet normal 0 0 1
    outer loop
      vertex 105 -10.5 15
      vertex 102 -12.25 15
      vertex 105 -13 15
    endloop
  endfacet
  facet normal 0 1 0
    outer loop
      vertex 10 -10.5 7.5
      vertex 10 -10.5 15
      vertex 105 -10.5 7.5
    endloop
  endfacet
  facet normal 0 1 0
    outer loop
      vertex 105 -10.5 7.5
      vertex 10 -10.5 15
      vertex 105 -10.5 15
    endloop
  endfacet
  facet normal 0 0 1
    outer loop
      vertex 10 -5 7.5
      vertex 10 -10.5 7.5
      vertex 105 -10.5 7.5
    endloop
  endfacet
  facet normal 0 0 1
    outer loop
      vertex 105 -5 7.5
      vertex 10 -5 7.5
      vertex 105 -10.5 7.5
    endloop
  endfacet
  facet normal 0 -1 0
    outer loop
      vertex 10 -5 15
      vertex 10 -5 7.5
      vertex 105 -5 7.5
    endloop
  endfacet
  facet normal 0 -1 0
    outer loop
      vertex 105 -5 15
      vertex 10 -5 15
      vertex 105 -5 7.5
    endloop
  endfacet
  facet normal 0 1 -1.22465e-16
    outer loop
      vertex 10 -12.25 15
      vertex 10 -12.25 32.5
      vertex 29.5 -12.25 15
    endloop
  endfacet
  facet normal 0 1 -1.22465e-16
    outer loop
      vertex 59.5 -12.25 30
      vertex 10 -12.25 32.5
      vertex 102 -12.25 32.5
    endloop
  endfacet
  facet normal 0 1 -1.22465e-16
    outer loop
      vertex 59.5 -12.25 15
      vertex 102 -12.25 32.5
      vertex 102 -12.25 15
    endloop
  endfacet
  facet normal 0 1 -1.22465e-16
    outer loop
      vertex 47.5 -12.25 30
      vertex 10 -12.25 32.5
      vertex 59.5 -12.25 30
    endloop
  endfacet
  facet normal 0 1 -1.22465e-16
    outer loop
      vertex 39.5 -12.25 30
      vertex 10 -12.25 32.5
      vertex 47.5 -12.25 30
    endloop
  endfacet
  facet normal 0 1 -1.22465e-16
    outer loop
      vertex 47.5 -12.25 15
      vertex 39.5 -12.25 15
      vertex 47.5 -12.25 30
    endloop
  endfacet
  facet normal 0 1 -1.22465e-16
    outer loop
      vertex 29.5 -12.25 30
      vertex 10 -12.25 32.5
      vertex 39.5 -12.25 30
    endloop
  endfacet
  facet normal 0 1 -1.22465e-16
    outer loop
      vertex 29.5 -12.25 15
      vertex 10 -12.25 32.5
      vertex 29.5 -12.25 30
    endloop
  endfacet
  facet normal 0 1 -1.22465e-16
    outer loop
      vertex 59.5 -12.25 30
      vertex 102 -12.25 32.5
      vertex 59.5 -12.25 15
    endloop
  endfacet
  facet normal 0 1 -1.22465e-16
    outer loop
      vertex 39.5 -12.25 30
      vertex 47.5 -12.25 30
      vertex 39.5 -12.25 15
    endloop
  endfacet
  facet normal 1 0 0
    outer loop
      vertex 102 -19.75 32.5
      vertex 102 -19.75 2.5
      vertex 102 -13 2.5
    endloop
  endfacet
  facet normal 1 0 0
    outer loop
      vertex 102 -12.25 15
      vertex 102 -19.75 32.5
      vertex 102 -13 15
    endloop
  endfacet
  facet normal 1 0 0
    outer loop
      vertex 102 -13 15
      vertex 102 -19.75 32.5
      vertex 102 -13 2.5
    endloop
  endfacet
  facet normal 1 0 0
    outer loop
      vertex 102 -12.25 32.5
      vertex 102 -19.75 32.5
      vertex 102 -12.25 15
    endloop
  endfacet
  facet normal 1 0 0
    outer loop
      vertex 102 -74.25 32.5
      vertex 102 -74.25 15
      vertex 102 -74 15
    endloop
  endfacet
  facet normal 1 0 0
    outer loop
      vertex 102 -68.25 22
      vertex 102 -74.25 32.5
      vertex 102 -74 15
    endloop
  endfacet
  facet normal 1 0 0
    outer loop
      vertex 102 -74 2.5
      vertex 102 -27.25 2.5
      vertex 102 -74 15
    endloop
  endfacet
  facet normal 1 0 0
    outer loop
      vertex 102 -68.25 30
      vertex 102 -27.25 32.5
      vertex 102 -74.25 32.5
    endloop
  endfacet
  facet normal 1 0 0
    outer loop
      vertex 102 -27.25 2.5
      vertex 102 -68.25 22
      vertex 102 -74 15
    endloop
  endfacet
  facet normal 1 0 0
    outer loop
      vertex 102 -58.25 30
      vertex 102 -58.25 22
      vertex 102 -56.75 25
    endloop
  endfacet
  facet normal 1 0 0
    outer loop
      vertex 102 -58.25 30
      vertex 102 -27.25 32.5
      vertex 102 -68.25 30
    endloop
  endfacet
  facet normal 1 0 0
    outer loop
      vertex 102 -27.75 25
      vertex 102 -56.75 25
      vertex 102 -27.25 2.5
    endloop
  endfacet
  facet normal 1 0 0
    outer loop
      vertex 102 -56.75 30
      vertex 102 -27.25 32.5
      vertex 102 -58.25 30
    endloop
  endfacet
  facet normal 1 0 0
    outer loop
      vertex 102 -27.25 2.5
      vertex 102 -58.25 22
      vertex 102 -68.25 22
    endloop
  endfacet
  facet normal 1 0 0
    outer loop
      vertex 102 -56.75 25
      vertex 102 -58.25 22
      vertex 102 -27.25 2.5
    endloop
  endfacet
  facet normal 1 0 0
    outer loop
      vertex 102 -27.75 30
      vertex 102 -27.25 32.5
      vertex 102 -56.75 30
    endloop
  endfacet
  facet normal 1 0 0
    outer loop
      vertex 102 -27.25 2.5
      vertex 102 -27.25 32.5
      vertex 102 -27.75 30
    endloop
  endfacet
  facet normal 1 0 0
    outer loop
      vertex 102 -27.25 2.5
      vertex 102 -27.75 30
      vertex 102 -27.75 25
    endloop
  endfacet
  facet normal 1 0 0
    outer loop
      vertex 102 -56.75 25
      vertex 102 -56.75 30
      vertex 102 -58.25 30
    endloop
  endfacet
  facet normal 1 0 0
    outer loop
      vertex 102 -68.25 22
      vertex 102 -68.25 30
      vertex 102 -74.25 32.5
    endloop
  endfacet
  facet normal 1 0 0
    outer loop
      vertex 13.5 -15.75 32.5
      vertex 13.5 -69.75 30
      vertex 13.5 -31.75 30
    endloop
  endfacet
  facet normal 1 0 0
    outer loop
      vertex 13.5 -69.75 2.5
      vertex 13.5 -69.75 30
      vertex 13.5 -70.75 32.5
    endloop
  endfacet
  facet normal 1 0 0
    outer loop
      vertex 13.5 -31.75 2.5
      vertex 13.5 -15.75 2.5
      vertex 13.5 -31.75 30
    endloop
  endfacet
  facet normal 1 0 0
    outer loop
      vertex 13.5 -15.75 2.5
      vertex 13.5 -15.75 32.5
      vertex 13.5 -31.75 30
    endloop
  endfacet
  facet normal 1 0 0
    outer loop
      vertex 13.5 -15.75 32.5
      vertex 13.5 -70.75 32.5
      vertex 13.5 -69.75 30
    endloop
  endfacet
  facet normal 1 0 0
    outer loop
      vertex 13.5 -70.75 32.5
      vertex 13.5 -70.75 2.5
      vertex 13.5 -69.75 2.5
    endloop
  endfacet
  facet normal 0 -1 1.22465e-16
    outer loop
      vertex 29.5 -15.75 30
      vertex 98.5 -15.75 32.5
      vertex 13.5 -15.75 32.5
    endloop
  endfacet
  facet normal 0 -1 1.22465e-16
    outer loop
      vertex 59.5 -15.75 30
      vertex 59.5 -15.75 10
      vertex 98.5 -15.75 2.5
    endloop
  endfacet
  facet normal 0 -1 1.22465e-16
    outer loop
      vertex 39.5 -15.75 30
      vertex 98.5 -15.75 32.5
      vertex 29.5 -15.75 30
    endloop
  endfacet
  facet normal 0 -1 1.22465e-16
    outer loop
      vertex 47.5 -15.75 30
      vertex 98.5 -15.75 32.5
      vertex 39.5 -15.75 30
    endloop
  endfacet
  facet normal 0 -1 1.22465e-16
    outer loop
      vertex 47.5 -15.75 10
      vertex 39.5 -15.75 30
      vertex 39.5 -15.75 15
    endloop
  endfacet
  facet normal 0 -1 1.22465e-16
    outer loop
      vertex 13.5 -15.75 2.5
      vertex 29.5 -15.75 15
      vertex 13.5 -15.75 32.5
    endloop
  endfacet
  facet normal 0 -1 1.22465e-16
    outer loop
      vertex 13.5 -15.75 2.5
      vertex 39.5 -15.75 15
      vertex 29.5 -15.75 15
    endloop
  endfacet
  facet normal 0 -1 1.22465e-16
    outer loop
      vertex 59.5 -15.75 30
      vertex 98.5 -15.75 32.5
      vertex 47.5 -15.75 30
    endloop
  endfacet
  facet normal 0 -1 1.22465e-16
    outer loop
      vertex 98.5 -15.75 2.5
      vertex 98.5 -15.75 32.5
      vertex 59.5 -15.75 30
    endloop
  endfacet
  facet normal 0 -1 1.22465e-16
    outer loop
      vertex 13.5 -15.75 2.5
      vertex 98.5 -15.75 2.5
      vertex 59.5 -15.75 10
    endloop
  endfacet
  facet normal 0 -1 1.22465e-16
    outer loop
      vertex 13.5 -15.75 2.5
      vertex 47.5 -15.75 10
      vertex 39.5 -15.75 15
    endloop
  endfacet
  facet normal 0 -1 1.22465e-16
    outer loop
      vertex 13.5 -15.75 2.5
      vertex 59.5 -15.75 10
      vertex 47.5 -15.75 10
    endloop
  endfacet
  facet normal 0 -1 1.22465e-16
    outer loop
      vertex 29.5 -15.75 15
      vertex 29.5 -15.75 30
      vertex 13.5 -15.75 32.5
    endloop
  endfacet
  facet normal 0 -1 1.22465e-16
    outer loop
      vertex 47.5 -15.75 10
      vertex 47.5 -15.75 30
      vertex 39.5 -15.75 30
    endloop
  endfacet
  facet normal -1 0 0
    outer loop
      vertex 98.5 -15.75 32.5
      vertex 98.5 -15.75 2.5
      vertex 98.5 -70.75 32.5
    endloop
  endfacet
  facet normal -1 0 0
    outer loop
      vertex 98.5 -70.75 32.5
      vertex 98.5 -15.75 2.5
      vertex 98.5 -70.75 2.5
    endloop
  endfacet
  facet normal 0 1 -1.22465e-16
    outer loop
      vertex 98.5 -70.75 32.5
      vertex 98.5 -70.75 2.5
      vertex 13.5 -70.75 32.5
    endloop
  endfacet
  facet normal 0 1 -1.22465e-16
    outer loop
      vertex 13.5 -70.75 32.5
      vertex 98.5 -70.75 2.5
      vertex 13.5 -70.75 2.5
    endloop
  endfacet
  facet normal 0.866025 0.5 -6.12324e-17
    outer loop
      vertex 4.5 -23.5 32.5
      vertex 5.375 -25.0155 32.5
      vertex 5.375 -25.0155 2.5
    endloop
  endfacet
  facet normal 0.866025 0.5 -6.12324e-17
    outer loop
      vertex 4.5 -23.5 2.5
      vertex 4.5 -23.5 32.5
      vertex 5.375 -25.0155 2.5
    endloop
  endfacet
  facet normal 0 1 -1.22465e-16
    outer loop
      vertex 7.125 -25.0155 32.5
      vertex 7.125 -25.0155 2.5
      vertex 5.375 -25.0155 32.5
    endloop
  endfacet
  facet normal 0 1 -1.22465e-16
    outer loop
      vertex 5.375 -25.0155 32.5
      vertex 7.125 -25.0155 2.5
      vertex 5.375 -25.0155 2.5
    endloop
  endfacet
  facet normal -0.866025 0.5 -6.12324e-17
    outer loop
      vertex 8 -23.5 32.5
      vertex 8 -23.5 2.5
      vertex 7.125 -25.0155 32.5
    endloop
  endfacet
  facet normal -0.866025 0.5 -6.12324e-17
    outer loop
      vertex 7.125 -25.0155 32.5
      vertex 8 -23.5 2.5
      vertex 7.125 -25.0155 2.5
    endloop
  endfacet
  facet normal -0.866025 -0.5 6.12324e-17
    outer loop
      vertex 8 -23.5 32.5
      vertex 7.125 -21.9845 32.5
      vertex 8 -23.5 2.5
    endloop
  endfacet
  facet normal -0.866025 -0.5 6.12324e-17
    outer loop
      vertex 8 -23.5 2.5
      vertex 7.125 -21.9845 32.5
      vertex 7.125 -21.9845 2.5
    endloop
  endfacet
  facet normal 0 -1 1.22465e-16
    outer loop
      vertex 7.125 -21.9845 2.5
      vertex 7.125 -21.9845 32.5
      vertex 5.375 -21.9845 32.5
    endloop
  endfacet
  facet normal 0 -1 1.22465e-16
    outer loop
      vertex 5.375 -21.9845 2.5
      vertex 7.125 -21.9845 2.5
      vertex 5.375 -21.9845 32.5
    endloop
  endfacet
  facet normal 0.866025 -0.5 6.12324e-17
    outer loop
      vertex 5.375 -21.9845 2.5
      vertex 5.375 -21.9845 32.5
      vertex 4.5 -23.5 32.5
    endloop
  endfacet
  facet normal 0.866025 -0.5 6.12324e-17
    outer loop
      vertex 4.5 -23.5 2.5
      vertex 5.375 -21.9845 2.5
      vertex 4.5 -23.5 32.5
    endloop
  endfacet
  facet normal 0.866025 0.5 -6.12324e-17
    outer loop
      vertex 103.5 -23.5 32.5
      vertex 104.375 -25.0155 32.5
      vertex 104.375 -25.0155 2.5
    endloop
  endfacet
  facet normal 0.866025 0.5 -6.12324e-17
    outer loop
      vertex 103.5 -23.5 2.5
      vertex 103.5 -23.5 32.5
      vertex 104.375 -25.0155 2.5
    endloop
  endfacet
  facet normal 0 1 -1.22465e-16
    outer loop
      vertex 106.125 -25.0155 32.5
      vertex 106.125 -25.0155 2.5
      vertex 104.375 -25.0155 32.5
    endloop
  endfacet
  facet normal 0 1 -1.22465e-16
    outer loop
      vertex 104.375 -25.0155 32.5
      vertex 106.125 -25.0155 2.5
      vertex 104.375 -25.0155 2.5
    endloop
  endfacet
  facet normal -0.866025 0.5 -6.12324e-17
    outer loop
      vertex 107 -23.5 32.5
      vertex 107 -23.5 2.5
      vertex 106.125 -25.0155 32.5
    endloop
  endfacet
  facet normal -0.866025 0.5 -6.12324e-17
    outer loop
      vertex 106.125 -25.0155 32.5
      vertex 107 -23.5 2.5
      vertex 106.125 -25.0155 2.5
    endloop
  endfacet
  facet normal -0.866025 -0.5 6.12324e-17
    outer loop
      vertex 107 -23.5 32.5
      vertex 106.125 -21.9845 32.5
      vertex 107 -23.5 2.5
    endloop
  endfacet
  facet normal -0.866025 -0.5 6.12324e-17
    outer loop
      vertex 107 -23.5 2.5
      vertex 106.125 -21.9845 32.5
      vertex 106.125 -21.9845 2.5
    endloop
  endfacet
  facet normal 0 -1 1.22465e-16
    outer loop
      vertex 106.125 -21.9845 2.5
      vertex 106.125 -21.9845 32.5
      vertex 104.375 -21.9845 32.5
    endloop
  endfacet
  facet normal 0 -1 1.22465e-16
    outer loop
      vertex 104.375 -21.9845 2.5
      vertex 106.125 -21.9845 2.5
      vertex 104.375 -21.9845 32.5
    endloop
  endfacet
  facet normal 0.866025 -0.5 6.12324e-17
    outer loop
      vertex 104.375 -21.9845 2.5
      vertex 104.375 -21.9845 32.5
      vertex 103.5 -23.5 32.5
    endloop
  endfacet
  facet normal 0.866025 -0.5 6.12324e-17
    outer loop
      vertex 103.5 -23.5 2.5
      vertex 104.375 -21.9845 2.5
      vertex 103.5 -23.5 32.5
    endloop
  endfacet
  facet normal 1 0 0
    outer loop
      vertex 46.5 -71 18
      vertex 46.5 -71 30
      vertex 46.5 -74.25 30
    endloop
  endfacet
  facet normal 1 0 0
    outer loop
      vertex 46.5 -74.25 18
      vertex 46.5 -71 18
      vertex 46.5 -74.25 30
    endloop
  endfacet
  facet normal 0 1.22465e-16 1
    outer loop
      vertex 64.5 -74.25 18
      vertex 64.5 -71 18
      vertex 46.5 -71 18
    endloop
  endfacet
  facet normal 0 1.22465e-16 1
    outer loop
      vertex 46.5 -74.25 18
      vertex 64.5 -74.25 18
      vertex 46.5 -71 18
    endloop
  endfacet
  facet normal -1 0 0
    outer loop
      vertex 64.5 -71 30
      vertex 64.5 -71 18
      vertex 64.5 -74.25 30
    endloop
  endfacet
  facet normal -1 0 0
    outer loop
      vertex 64.5 -74.25 30
      vertex 64.5 -71 18
      vertex 64.5 -74.25 18
    endloop
  endfacet
  facet normal 0 -1.22465e-16 -1
    outer loop
      vertex 64.5 -71 30
      vertex 64.5 -74.25 30
      vertex 46.5 -71 30
    endloop
  endfacet
  facet normal 0 -1.22465e-16 -1
    outer loop
      vertex 46.5 -71 30
      vertex 64.5 -74.25 30
      vertex 46.5 -74.25 30
    endloop
  endfacet
  facet normal -1 0 0
    outer loop
      vertex 59.5 -12.25 30
      vertex 59.5 -12.25 15
      vertex 59.5 -15.75 30
    endloop
  endfacet
  facet normal -1 0 0
    outer loop
      vertex 59.5 -15.75 30
      vertex 59.5 -12.25 15
      vertex 59.5 -13 15
    endloop
  endfacet
  facet normal -1 0 0
    outer loop
      vertex 59.5 -15.75 30
      vertex 59.5 -13 15
      vertex 59.5 -13 10
    endloop
  endfacet
  facet normal -1 0 0
    outer loop
      vertex 59.5 -15.75 30
      vertex 59.5 -13 10
      vertex 59.5 -15.75 10
    endloop
  endfacet
  facet normal 0 -1 0
    outer loop
      vertex 47.5 -13 15
      vertex 47.5 -13 10
      vertex 59.5 -13 10
    endloop
  endfacet
  facet normal 0 -1 0
    outer loop
      vertex 59.5 -13 15
      vertex 47.5 -13 15
      vertex 59.5 -13 10
    endloop
  endfacet
  facet normal 1 0 0
    outer loop
      vertex 47.5 -12.25 30
      vertex 47.5 -13 15
      vertex 47.5 -12.25 15
    endloop
  endfacet
  facet normal 1 0 0
    outer loop
      vertex 47.5 -15.75 30
      vertex 47.5 -13 15
      vertex 47.5 -12.25 30
    endloop
  endfacet
  facet normal 1 0 0
    outer loop
      vertex 47.5 -13 10
      vertex 47.5 -13 15
      vertex 47.5 -15.75 30
    endloop
  endfacet
  facet normal 1 0 0
    outer loop
      vertex 47.5 -15.75 10
      vertex 47.5 -13 10
      vertex 47.5 -15.75 30
    endloop
  endfacet
  facet normal -1 0 0
    outer loop
      vertex 39.5 -12.25 30
      vertex 39.5 -12.25 15
      vertex 39.5 -15.75 30
    endloop
  endfacet
  facet normal -1 0 0
    outer loop
      vertex 39.5 -15.75 30
      vertex 39.5 -12.25 15
      vertex 39.5 -15.75 15
    endloop
  endfacet
  facet normal 0 1.22465e-16 1
    outer loop
      vertex 39.5 -15.75 15
      vertex 39.5 -12.25 15
      vertex 29.5 -12.25 15
    endloop
  endfacet
  facet normal 0 1.22465e-16 1
    outer loop
      vertex 29.5 -15.75 15
      vertex 39.5 -15.75 15
      vertex 29.5 -12.25 15
    endloop
  endfacet
  facet normal 1 0 0
    outer loop
      vertex 29.5 -12.25 15
      vertex 29.5 -12.25 30
      vertex 29.5 -15.75 30
    endloop
  endfacet
  facet normal 1 0 0
    outer loop
      vertex 29.5 -15.75 15
      vertex 29.5 -12.25 15
      vertex 29.5 -15.75 30
    endloop
  endfacet
  facet normal 0 -1.22465e-16 -1
    outer loop
      vertex 39.5 -12.25 30
      vertex 39.5 -15.75 30
      vertex 29.5 -12.25 30
    endloop
  endfacet
  facet normal 0 -1.22465e-16 -1
    outer loop
      vertex 29.5 -12.25 30
      vertex 39.5 -15.75 30
      vertex 29.5 -15.75 30
    endloop
  endfacet
  facet normal 0 -1.22465e-16 -1
    outer loop
      vertex 59.5 -12.25 30
      vertex 59.5 -15.75 30
      vertex 47.5 -12.25 30
    endloop
  endfacet
  facet normal 0 -1.22465e-16 -1
    outer loop
      vertex 47.5 -12.25 30
      vertex 59.5 -15.75 30
      vertex 47.5 -15.75 30
    endloop
  endfacet
  facet normal 0 1 -1.22465e-16
    outer loop
      vertex 102 -68.25 30
      vertex 102 -68.25 22
      vertex 98.75 -68.25 30
    endloop
  endfacet
  facet normal 0 1 -1.22465e-16
    outer loop
      vertex 98.75 -68.25 30
      vertex 102 -68.25 22
      vertex 98.75 -68.25 22
    endloop
  endfacet
  facet normal 0 1.22465e-16 1
    outer loop
      vertex 102 -68.25 22
      vertex 102 -58.25 22
      vertex 98.75 -58.25 22
    endloop
  endfacet
  facet normal 0 1.22465e-16 1
    outer loop
      vertex 98.75 -68.25 22
      vertex 102 -68.25 22
      vertex 98.75 -58.25 22
    endloop
  endfacet
  facet normal 0 -1 1.22465e-16
    outer loop
      vertex 102 -58.25 22
      vertex 102 -58.25 30
      vertex 98.75 -58.25 30
    endloop
  endfacet
  facet normal 0 -1 1.22465e-16
    outer loop
      vertex 98.75 -58.25 22
      vertex 102 -58.25 22
      vertex 98.75 -58.25 30
    endloop
  endfacet
  facet normal 0 -1.22465e-16 -1
    outer loop
      vertex 102 -58.25 30
      vertex 102 -68.25 30
      vertex 98.75 -58.25 30
    endloop
  endfacet
  facet normal 0 -1.22465e-16 -1
    outer loop
      vertex 98.75 -58.25 30
      vertex 102 -68.25 30
      vertex 98.75 -68.25 30
    endloop
  endfacet
  facet normal 0 1 -1.22465e-16
    outer loop
      vertex 102 -56.75 30
      vertex 102 -56.75 25
      vertex 98.75 -56.75 30
    endloop
  endfacet
  facet normal 0 1 -1.22465e-16
    outer loop
      vertex 98.75 -56.75 30
      vertex 102 -56.75 25
      vertex 98.75 -56.75 25
    endloop
  endfacet
  facet normal 0 1.22465e-16 1
    outer loop
      vertex 102 -56.75 25
      vertex 102 -27.75 25
      vertex 98.75 -27.75 25
    endloop
  endfacet
  facet normal 0 1.22465e-16 1
    outer loop
      vertex 98.75 -56.75 25
      vertex 102 -56.75 25
      vertex 98.75 -27.75 25
    endloop
  endfacet
  facet normal 0 -1 1.22465e-16
    outer loop
      vertex 102 -27.75 25
      vertex 102 -27.75 30
      vertex 98.75 -27.75 30
    endloop
  endfacet
  facet normal 0 -1 1.22465e-16
    outer loop
      vertex 98.75 -27.75 25
      vertex 102 -27.75 25
      vertex 98.75 -27.75 30
    endloop
  endfacet
  facet normal 0 -1.22465e-16 -1
    outer loop
      vertex 102 -27.75 30
      vertex 102 -56.75 30
      vertex 98.75 -27.75 30
    endloop
  endfacet
  facet normal 0 -1.22465e-16 -1
    outer loop
      vertex 98.75 -27.75 30
      vertex 102 -56.75 30
      vertex 98.75 -56.75 30
    endloop
  endfacet
  facet normal 0 1.22465e-16 1
    outer loop
      vertex 59.5 -15.75 10
      vertex 59.5 -13 10
      vertex 47.5 -13 10
    endloop
  endfacet
  facet normal 0 1.22465e-16 1
    outer loop
      vertex 47.5 -15.75 10
      vertex 59.5 -15.75 10
      vertex 47.5 -13 10
    endloop
  endfacet
  facet normal 0 0 1
    outer loop
      vertex 5.375 -21.9845 2.5
      vertex 4.5 -23.5 2.5
      vertex 5.375 -25.0155 2.5
    endloop
  endfacet
  facet normal 0 0 1
    outer loop
      vertex 8 -23.5 2.5
      vertex 5.375 -21.9845 2.5
      vertex 7.125 -25.0155 2.5
    endloop
  endfacet
  facet normal 0 0 1
    outer loop
      vertex 7.125 -25.0155 2.5
      vertex 5.375 -21.9845 2.5
      vertex 5.375 -25.0155 2.5
    endloop
  endfacet
  facet normal 0 0 1
    outer loop
      vertex 7.125 -21.9845 2.5
      vertex 5.375 -21.9845 2.5
      vertex 8 -23.5 2.5
    endloop
  endfacet
  facet normal 0 0 1
    outer loop
      vertex 104.375 -21.9845 2.5
      vertex 103.5 -23.5 2.5
      vertex 104.375 -25.0155 2.5
    endloop
  endfacet
  facet normal 0 0 1
    outer loop
      vertex 107 -23.5 2.5
      vertex 104.375 -21.9845 2.5
      vertex 106.125 -25.0155 2.5
    endloop
  endfacet
  facet normal 0 0 1
    outer loop
      vertex 106.125 -25.0155 2.5
      vertex 104.375 -21.9845 2.5
      vertex 104.375 -25.0155 2.5
    endloop
  endfacet
  facet normal 0 0 1
    outer loop
      vertex 106.125 -21.9845 2.5
      vertex 104.375 -21.9845 2.5
      vertex 107 -23.5 2.5
    endloop
  endfacet
  facet normal 0 -1 1.22465e-16
    outer loop
      vertex 64.5 -71 18
      vertex 64.5 -71 30
      vertex 46.5 -71 30
    endloop
  endfacet
  facet normal 0 -1 1.22465e-16
    outer loop
      vertex 46.5 -71 18
      vertex 64.5 -71 18
      vertex 46.5 -71 30
    endloop
  endfacet
  facet normal 1 0 0
    outer loop
      vertex 98.75 -58.25 22
      vertex 98.75 -58.25 30
      vertex 98.75 -68.25 30
    endloop
  endfacet
  facet normal 1 0 0
    outer loop
      vertex 98.75 -68.25 22
      vertex 98.75 -58.25 22
      vertex 98.75 -68.25 30
    endloop
  endfacet
  facet normal 1 0 0
    outer loop
      vertex 98.75 -27.75 25
      vertex 98.75 -27.75 30
      vertex 98.75 -56.75 30
    endloop
  endfacet
  facet normal 1 0 0
    outer loop
      vertex 98.75 -56.75 25
      vertex 98.75 -27.75 25
      vertex 98.75 -56.75 30
    endloop
  endfacet
endsolid OpenSCAD_Model
